<svg id="Capa_1" data-name="Capa 1" xmlns="http://www.w3.org/2000/svg" viewBox="0 0 1880 728"><defs><style>.cls-1{fill:#bbb;}.cls-2{fill:#c7c7c7;}.cls-3{fill:silver;}.cls-4{fill:#c3c3c3;}.cls-5{fill:#cacaca;}.cls-10,.cls-11,.cls-12,.cls-13,.cls-14,.cls-15,.cls-16,.cls-17,.cls-18,.cls-19,.cls-20,.cls-21,.cls-22,.cls-23,.cls-24,.cls-25,.cls-26,.cls-27,.cls-28,.cls-29,.cls-30,.cls-31,.cls-32,.cls-33,.cls-34,.cls-35,.cls-36,.cls-37,.cls-38,.cls-39,.cls-40,.cls-41,.cls-42,.cls-43,.cls-45,.cls-47,.cls-48,.cls-6,.cls-8,.cls-9{fill:none;stroke-miterlimit:10;}.cls-6{stroke:#dcdcdc;}.cls-6,.cls-8{stroke-width:5px;}.cls-7{fill:#dcdcdc;}.cls-10,.cls-11,.cls-12,.cls-13,.cls-14,.cls-16,.cls-17,.cls-18,.cls-19,.cls-25,.cls-32,.cls-33,.cls-34,.cls-35,.cls-8,.cls-9{stroke:#cacaca;}.cls-9{stroke-width:4.47px;}.cls-10,.cls-15,.cls-26,.cls-30,.cls-32,.cls-43{stroke-width:4px;}.cls-11{stroke-width:3.67px;}.cls-12{stroke-width:4.49px;}.cls-13{stroke-width:3.62px;}.cls-14{stroke-width:3.25px;}.cls-15,.cls-20,.cls-21,.cls-22,.cls-23,.cls-24,.cls-37,.cls-38,.cls-39,.cls-40,.cls-41,.cls-42{stroke:#c7c7c7;}.cls-16{stroke-width:4.09px;}.cls-17{stroke-width:2.54px;}.cls-18,.cls-45{stroke-width:2.99px;}.cls-19{stroke-width:3.02px;}.cls-20{stroke-width:4.82px;}.cls-21{stroke-width:3.53px;}.cls-22{stroke-width:4.05px;}.cls-23{stroke-width:3.96px;}.cls-24{stroke-width:3.37px;}.cls-25{stroke-width:3.63px;}.cls-26,.cls-27,.cls-28,.cls-29,.cls-36,.cls-47,.cls-48{stroke:silver;}.cls-27{stroke-width:3.37px;}.cls-28{stroke-width:3.69px;}.cls-29{stroke-width:2.56px;}.cls-30,.cls-31{stroke:#c3c3c3;}.cls-31{stroke-width:2.81px;}.cls-32{stroke-linecap:round;}.cls-33{stroke-width:2.31px;}.cls-34{stroke-width:2.8px;}.cls-35{stroke-width:3.29px;}.cls-36{stroke-width:4.68px;}.cls-37{stroke-width:3.97px;}.cls-38{stroke-width:4.54px;}.cls-39{stroke-width:3.82px;}.cls-40{stroke-width:2.78px;}.cls-41{stroke-width:3.69px;}.cls-42{stroke-width:2.9px;}.cls-43{stroke:#cecece;}.cls-44{fill:#cecece;}.cls-45{stroke:#d4d4d6;}.cls-46{fill:#d4d4d6;}.cls-47{stroke-width:2.63px;}.cls-48{stroke-width:5.2px;}</style></defs><rect class="cls-1" x="-11" y="-6" width="1899" height="746"/><rect class="cls-2" x="4.59" y="8.55" width="110.18" height="110.18" rx="15.33" transform="translate(-3.53 3.5) rotate(-3.26)"/><polygon class="cls-3" points="139.23 23.7 139.23 54.58 165.97 70.03 192.72 54.58 192.72 23.7 165.97 8.26 139.23 23.7"/><rect class="cls-2" x="142.85" y="89.81" width="75.65" height="75.65" transform="translate(15.73 -19.77) rotate(6.55)"/><rect class="cls-4" x="14.68" y="142.14" width="63" height="63" transform="translate(-19.12 6.25) rotate(-6.42)"/><circle class="cls-5" cx="134.18" cy="223.64" r="34.73"/><circle class="cls-4" cx="228.68" cy="48.14" r="14"/><rect class="cls-5" x="107.59" y="276.55" width="80.18" height="80.18" rx="6.78" transform="translate(-35.38 19.05) rotate(-6.59)"/><rect class="cls-5" x="260.2" y="41.67" width="75.95" height="75.95"/><polygon class="cls-5" points="101.89 369.12 66.33 430.7 137.44 430.7 101.89 369.12"/><circle class="cls-2" cx="390.18" cy="108.64" r="32.5"/><rect class="cls-2" x="291.09" y="212.05" width="84.17" height="84.17" transform="translate(-82.12 310.03) rotate(-45)"/><rect class="cls-5" x="245.68" y="135.64" width="44.53" height="44.53"/><polygon class="cls-5" points="216.66 313.9 232.93 349.56 271.94 353.29 294.69 321.38 278.42 285.73 239.41 281.99 216.66 313.9"/><rect class="cls-4" x="29.68" y="247.14" width="78" height="39" transform="translate(341.24 227.64) rotate(96.3)"/><circle class="cls-5" cx="39.68" cy="368.14" r="40.11"/><rect class="cls-5" x="371.11" y="0.94" width="52.19" height="77.4" transform="matrix(0.07, -1, 1, 0.07, 330.55, 433.22)"/><path class="cls-5" d="M191.43,198.94,210.21,269a3.46,3.46,0,0,0,5.79,1.55l51.32-51.31a3.46,3.46,0,0,0-1.56-5.79L195.67,194.7A3.46,3.46,0,0,0,191.43,198.94Z"/><rect class="cls-5" x="322.54" y="153.81" width="78" height="25.18" transform="translate(672.97 414.22) rotate(-166.2)"/><rect class="cls-4" x="308.85" y="332.81" width="75.65" height="75.65" transform="translate(44.52 -37.11) rotate(6.55)"/><rect class="cls-3" x="419.59" y="151.55" width="110.18" height="110.18" rx="15.33" transform="translate(144.59 -192.18) rotate(26.86)"/><rect class="cls-3" x="161.59" y="375.55" width="110.18" height="110.18" rx="15.33" transform="translate(-24.17 13.04) rotate(-3.26)"/><polygon class="cls-5" points="452.32 76.2 472.15 119.65 519.7 124.21 547.42 85.31 527.59 41.85 480.05 37.3 452.32 76.2"/><rect class="cls-5" x="819.4" y="12.05" width="110.18" height="110.18" rx="15.33" transform="translate(1751.39 84.38) rotate(176.74)"/><polygon class="cls-5" points="407.94 575.08 407.94 544.2 381.19 528.76 354.45 544.2 354.45 575.08 381.19 590.52 407.94 575.08"/><rect class="cls-5" x="716.67" y="5.31" width="75.65" height="75.65" transform="translate(1499.15 172.02) rotate(-173.45)"/><rect class="cls-5" x="616.49" y="20.64" width="63" height="63" transform="matrix(-0.99, 0.11, -0.11, -0.99, 1297.75, 31.51)"/><circle class="cls-5" cx="22.99" cy="545.14" r="34.73"/><circle class="cls-4" cx="400.68" cy="294.14" r="14"/><rect class="cls-3" x="295.41" y="433.05" width="80.18" height="80.18" rx="6.78" transform="translate(723.09 904.63) rotate(173.41)"/><rect class="cls-5" x="236.49" y="635.69" width="75.95" height="75.95" rx="37.97" transform="translate(548.93 1347.32) rotate(-180)"/><polygon class="cls-5" points="569.28 71.72 604.84 10.14 533.73 10.14 569.28 71.72"/><circle class="cls-5" cx="473.18" cy="346.64" r="52.5"/><rect class="cls-4" x="559.91" y="98.55" width="84.17" height="84.17" transform="translate(1127.12 -185.58) rotate(135)"/><rect class="cls-5" x="3.96" y="432.61" width="44.53" height="44.53" transform="translate(52.46 909.75) rotate(180)"/><polygon class="cls-5" points="240.5 544.88 224.24 509.23 185.23 505.49 162.48 537.4 178.75 573.06 217.76 576.79 240.5 544.88"/><rect class="cls-4" x="139.89" y="656.64" width="78" height="65.95" rx="8.17" transform="translate(-526.2 791.76) rotate(-83.7)"/><circle class="cls-5" cx="465.49" cy="549.64" r="40.11"/><rect class="cls-5" x="402.86" y="409.44" width="52.19" height="77.4" transform="translate(857.92 896.28) rotate(180)"/><path class="cls-5" d="M706.74,227.84,688,157.75a3.45,3.45,0,0,0-5.78-1.55l-51.32,51.31a3.46,3.46,0,0,0,1.55,5.79l70.1,18.78A3.46,3.46,0,0,0,706.74,227.84Z"/><rect class="cls-5" x="83.63" y="568.79" width="78" height="25.18" transform="translate(193.5 -8.55) rotate(18.76)"/><rect class="cls-5" x="255.67" y="537.31" width="75.65" height="75.65" transform="translate(519.5 1179.99) rotate(-173.45)"/><rect class="cls-3" x="5.4" y="611.05" width="110.18" height="110.18" rx="15.33" transform="translate(187.92 1322.77) rotate(174.21)"/><rect class="cls-2" x="543.4" y="243.05" width="110.18" height="110.18" rx="15.33" transform="translate(1212.99 561.72) rotate(176.74)"/><polygon class="cls-5" points="156.84 503.58 137.02 460.13 89.47 455.57 61.75 494.47 81.58 537.93 129.12 542.48 156.84 503.58"/><circle class="cls-5" cx="190.68" cy="614.14" r="14"/><rect class="cls-5" x="482.59" y="412.55" width="84.17" height="84.17" transform="translate(1217.16 405.12) rotate(135)"/><rect class="cls-5" x="1163.23" y="613.89" width="110.18" height="110.18" rx="15.33" transform="translate(2472.77 1267.5) rotate(176.74)"/><polygon class="cls-5" points="1138.77 708.92 1138.77 678.04 1112.03 662.6 1085.28 678.04 1085.28 708.92 1112.03 724.36 1138.77 708.92"/><rect class="cls-5" x="1059.5" y="567.15" width="75.65" height="75.65" transform="translate(2118.52 1331.12) rotate(-173.45)"/><rect class="cls-5" x="1203.32" y="524.48" width="63" height="63" transform="translate(2524.06 970.43) rotate(173.58)"/><circle class="cls-5" cx="1143.82" cy="508.98" r="34.73"/><circle class="cls-5" cx="1052.32" cy="681.48" r="14"/><rect class="cls-5" x="1090.24" y="375.89" width="80.18" height="80.18" rx="6.78" transform="translate(2300.93 699.43) rotate(173.41)"/><rect class="cls-4" x="944.01" y="629.71" width="75.95" height="75.95" transform="translate(1963.96 1335.36) rotate(180)"/><polygon class="cls-4" points="505.7 632.87 575.71 620.45 529.94 566.03 505.7 632.87"/><circle class="cls-5" cx="887.82" cy="623.98" r="32.5"/><rect class="cls-3" x="902.74" y="436.39" width="84.17" height="84.17" transform="translate(1951.25 148.72) rotate(135)"/><rect class="cls-5" x="987.8" y="552.45" width="44.53" height="44.53" transform="translate(2020.12 1149.43) rotate(180)"/><polygon class="cls-5" points="1061.34 418.72 1045.07 383.06 1006.06 379.33 983.31 411.24 999.58 446.89 1038.59 450.63 1061.34 418.72"/><circle class="cls-5" cx="1236.32" cy="365.48" r="40.11"/><rect class="cls-5" x="855.69" y="664.28" width="52.19" height="77.4" transform="translate(1643.31 -128.78) rotate(93.91)"/><path class="cls-5" d="M1086.57,533.68l-18.78-70.09A3.46,3.46,0,0,0,1062,462l-51.32,51.31a3.46,3.46,0,0,0,1.56,5.79l70.09,18.78A3.46,3.46,0,0,0,1086.57,533.68Z"/><rect class="cls-5" x="877.46" y="553.63" width="78" height="25.18" transform="translate(161.48 -202.22) rotate(13.8)"/><rect class="cls-5" x="896.5" y="321.15" width="75.65" height="75.65" transform="translate(1821.63 822.14) rotate(-173.45)"/><rect class="cls-5" x="748.23" y="470.89" width="110.18" height="110.18" rx="15.33" transform="translate(1282.31 1358.18) rotate(-153.14)"/><rect class="cls-5" x="1006.23" y="246.89" width="110.18" height="110.18" rx="15.33" transform="translate(2138.12 543.03) rotate(176.74)"/><polygon class="cls-2" points="825.68 656.42 805.85 612.97 758.3 608.41 730.58 647.31 750.41 690.76 797.96 695.32 825.68 656.42"/><rect class="cls-2" x="333.42" y="618.39" width="110.18" height="110.18" rx="15.33" transform="translate(-37.72 23.21) rotate(-3.26)"/><polygon class="cls-2" points="870.06 157.54 870.06 188.42 896.81 203.86 923.55 188.42 923.55 157.54 896.81 142.09 870.06 157.54"/><rect class="cls-5" x="481.68" y="657.65" width="75.65" height="75.65" transform="translate(82.68 -54.69) rotate(6.55)"/><rect class="cls-5" x="586.51" y="644.98" width="63" height="63" transform="translate(-71.75 73.33) rotate(-6.42)"/><circle class="cls-5" cx="1255.01" cy="187.48" r="34.73"/><circle class="cls-5" cx="880.32" cy="435.48" r="14"/><rect class="cls-5" x="902.42" y="219.39" width="80.18" height="80.18" rx="6.78" transform="translate(-23.56 109.93) rotate(-6.59)"/><rect class="cls-5" x="965.56" y="20.99" width="75.95" height="75.95" rx="37.97"/><polygon class="cls-5" points="708.72 660.9 673.16 722.48 744.27 722.48 708.72 660.9"/><circle class="cls-5" cx="814.82" cy="386.98" r="52.5"/><rect class="cls-5" x="636.92" y="546.89" width="84.17" height="84.17" transform="translate(-217.59 652.64) rotate(-45)"/><rect class="cls-3" x="1229.51" y="255.48" width="44.53" height="44.53"/><polygon class="cls-5" points="1037.5 187.74 1053.76 223.39 1092.77 227.13 1115.52 195.22 1099.25 159.56 1060.24 155.83 1037.5 187.74"/><rect class="cls-2" x="1060.11" y="10.02" width="78" height="65.95" rx="8.17" transform="translate(1262.45 -1044.76) rotate(96.3)"/><circle class="cls-3" cx="812.51" cy="182.98" r="40.11"/><rect class="cls-4" x="825.94" y="242.78" width="52.19" height="77.4"/><path class="cls-3" d="M701.26,106.78l18.79,70.09a3.45,3.45,0,0,0,5.78,1.55l51.32-51.31a3.46,3.46,0,0,0-1.55-5.79l-70.1-18.78A3.46,3.46,0,0,0,701.26,106.78Z"/><rect class="cls-4" x="1116.37" y="138.65" width="78" height="25.18" transform="translate(2200.72 666.03) rotate(-161.24)"/><rect class="cls-5" x="946.68" y="119.65" width="75.65" height="75.65" transform="translate(24.37 -111.21) rotate(6.55)"/><rect class="cls-4" x="1162.42" y="11.39" width="110.18" height="110.18" rx="15.33" transform="translate(-0.49 123.25) rotate(-5.79)"/><rect class="cls-3" x="624.42" y="379.39" width="110.18" height="110.18" rx="15.33" transform="translate(-23.64 39.4) rotate(-3.26)"/><polygon class="cls-2" points="1121.16 229.04 1140.98 272.49 1188.53 277.05 1216.25 238.15 1196.42 194.69 1148.88 190.14 1121.16 229.04"/><circle class="cls-3" cx="1087.32" cy="118.48" r="14"/><rect class="cls-5" x="694.24" y="262.89" width="84.17" height="84.17" transform="translate(0.01 609.99) rotate(-45)"/><polygon class="cls-2" points="549.78 557.66 589.43 584.3 632.33 563.27 635.57 515.62 595.92 488.99 553.02 510.01 549.78 557.66"/><circle class="cls-5" cx="585.68" cy="399.14" r="14"/><circle class="cls-3" cx="1160.68" cy="321.14" r="14"/><path class="cls-6" d="M62.07,69.07c12,18.32,23.35,53-14.39,98.07"/><polygon class="cls-7" points="54.01 80.71 49.67 54.64 74.42 63.91 54.01 80.71"/><path class="cls-8" d="M626.82,319.89c20.77,6.95,51.21,27.14,49.52,85.87"/><polygon class="cls-5" points="627.72 334.02 608.15 316.26 633.32 308.19 627.72 334.02"/><path class="cls-9" d="M1177.12,240.71c12,14.63,23.25,42.29-14.44,78.15"/><polygon class="cls-5" points="1171.11 251.84 1164.67 229.14 1187.55 234.92 1171.11 251.84"/><path class="cls-10" d="M76.33,23.21c18.54-7.92,52-5.23,73.28,5.3"/><polygon class="cls-5" points="165.9 41.6 135.17 33.4 148 28.03 149.71 14.22 165.9 41.6"/><path class="cls-10" d="M517.59,201.84c8.4-18.33,35-38.81,57.82-45.34"/><polygon class="cls-5" points="596.27 155.24 568 169.83 573.89 157.22 565.87 145.86 596.27 155.24"/><path class="cls-10" d="M252,431.4c8.4-18.33,35-38.81,57.82-45.33"/><polygon class="cls-5" points="330.66 384.8 302.39 399.39 308.29 386.79 300.26 375.42 330.66 384.8"/><path class="cls-11" d="M369.38,374.41c7.09,14.88,12.79,42.58-16.18,75.5"/><polygon class="cls-5" points="362.34 382.02 361.87 362.65 378.88 371.93 362.34 382.02"/><path class="cls-12" d="M403.6,291c22.2-3.39,48.47-23.6,59.27-44.41"/><polygon class="cls-5" points="467.43 223.62 473.06 258.87 461.7 248.16 446.77 252.73 467.43 223.62"/><path class="cls-13" d="M825.94,183.34c14.95,7.12,37.53,25.12,38.5,69"/><polygon class="cls-5" points="825.25 193.54 812.89 178.94 831.72 175.54 825.25 193.54"/><path class="cls-14" d="M535.49,605.39C551.61,599,575.3,574.81,586.15,554"/><polygon class="cls-5" points="591.78 538 592.61 563.83 585.43 555.11 574.29 557.02 591.78 538"/><path class="cls-15" d="M84.2,633.15c13.16-23,41.46-46.91,61.53-45.87"/><polygon class="cls-2" points="96.48 634.85 77.83 648.53 75.3 625.53 96.48 634.85"/><path class="cls-16" d="M1119.69,33.89c20.27-3.13,50.77,7.75,67.63,23.36"/><polygon class="cls-5" points="1199.03 75.17 1171.66 57.51 1185.86 56.32 1191.86 43.4 1199.03 75.17"/><path class="cls-10" d="M832.11,512.87c13.44-15,44.86-26.76,68.63-26.25"/><polygon class="cls-5" points="921.04 491.56 889.72 497.16 899.08 486.86 894.77 473.63 921.04 491.56"/><path class="cls-10" d="M611,516.4c8.4-18.33,35-38.81,57.82-45.33"/><polygon class="cls-5" points="689.66 469.8 661.39 484.39 667.29 471.79 659.26 460.42 689.66 469.8"/><path class="cls-10" d="M90.89,676.75c18.72-7.5,52.08-4,73.14,7"/><polygon class="cls-5" points="180.03 697.16 149.48 688.27 162.44 683.19 164.45 669.42 180.03 697.16"/><path class="cls-17" d="M1092.68,60.14c-8.75,9.24-14,28.79-12.07,43"/><polygon class="cls-5" points="1085.5 115.5 1071.97 100.52 1080.66 102.1 1086.33 95.33 1085.5 115.5"/><path class="cls-18" d="M376.12,574.4c-8.72,12.9-13.11,41.51-9.71,61.48"/><polygon class="cls-5" points="371.53 650.65 356.16 632.49 366.33 634.68 373.27 626.92 371.53 650.65"/><path class="cls-19" d="M353.12,169.4c-10.05,11.43-15.91,35.89-13.31,53.53"/><polygon class="cls-5" points="345.48 237.67 329.5 219.71 339.84 221.66 346.65 213.66 345.48 237.67"/><path class="cls-17" d="M39.21,196.92c-6.64,10.86-7.73,31.08-2.85,44.59"/><polygon class="cls-5" points="43.7 252.56 27.35 240.72 36.18 240.46 40.32 232.66 43.7 252.56"/><path class="cls-15" d="M475.84,527.8c13.16-23,41.46-46.91,61.53-45.86"/><polygon class="cls-2" points="488.12 529.5 469.47 543.18 466.94 520.19 488.12 529.5"/><path class="cls-20" d="M728.67,106.36c15.16-62.72,70-57.85,100.1-60.86"/><polygon class="cls-2" points="743.38 104.8 725.47 126.18 715.9 99.98 743.38 104.8"/><path class="cls-21" d="M433.79,427.63c1.94-22.47,15.82-48.82,32.56-52.24"/><polygon class="cls-2" points="444.26 424.38 434.49 442.31 423.84 424.88 444.26 424.38"/><path class="cls-15" d="M955.84,343.8c13.16-23,41.46-46.91,61.53-45.86"/><polygon class="cls-2" points="968.12 345.5 949.47 359.18 946.94 336.19 968.12 345.5"/><path class="cls-15" d="M1016.84,115.8c13.16-23,41.46-46.91,61.53-45.86"/><polygon class="cls-2" points="1029.12 117.5 1010.47 131.18 1007.94 108.19 1029.12 117.5"/><path class="cls-22" d="M1124.24,624.5c13.46,23.07,42.11,46.52,62.27,44.85"/><polygon class="cls-2" points="1115.3 632.28 1117.67 608.99 1136.66 622.68 1115.3 632.28"/><path class="cls-23" d="M816,485.89c25.78-5.77,57-25.65,62.2-45"/><polygon class="cls-2" points="820.65 496.54 799.61 487.45 818 473.76 820.65 496.54"/><path class="cls-15" d="M165.84,290.8c13.16-23,41.46-46.91,61.53-45.86"/><polygon class="cls-2" points="178.12 292.5 159.47 306.18 156.94 283.19 178.12 292.5"/><path class="cls-24" d="M34.93,535c14.8-15.18,39.79-24.66,52.79-15.21"/><polygon class="cls-2" points="44.63 538.96 26.56 546.3 29.24 526.98 44.63 538.96"/><path class="cls-10" d="M762,318.4c8.4-18.33,35-38.81,57.82-45.33"/><polygon class="cls-5" points="840.66 271.8 812.39 286.39 818.29 273.79 810.26 262.42 840.66 271.8"/><path class="cls-10" d="M893,619c20.15.69,49.29,17.32,64.11,35.89"/><polygon class="cls-5" points="966.3 673.64 941.94 653.17 955.85 653.76 963.24 641.98 966.3 673.64"/><path class="cls-25" d="M255.16,687.86c16.1,9.61,50.09,12.56,73.33,6.74"/><polygon class="cls-5" points="345.83 686.86 325.43 707.31 327.03 694.78 316.94 687.18 345.83 686.86"/><path class="cls-10" d="M1151,149.4c8.4-18.33,35-38.81,57.82-45.33"/><polygon class="cls-5" points="1229.66 102.8 1201.39 117.39 1207.29 104.79 1199.26 93.42 1229.66 102.8"/><path class="cls-26" d="M752.31,323.49c24.59,9.11,51.87,31.65,54.55,51"/><polygon class="cls-3" points="758.03 337.37 756 324.82 763.62 314.64 733.89 319.38 758.03 337.37"/><path class="cls-26" d="M936.79,364.65c10,24.23,12,59.56-.35,74.68"/><polygon class="cls-3" points="930.49 378.28 938.32 368.26 950.97 366.94 927.28 348.35 930.49 378.28"/><path class="cls-27" d="M768.28,678.62c-7.6,19.27-25.71,37-41,33.9"/><polygon class="cls-3" points="756.52 683.31 767.11 681.71 775.61 688.22 771.88 663.14 756.52 683.31"/><path class="cls-28" d="M509.87,352c23.38,3.52,45.36-5,41.47-22.64"/><polygon class="cls-3" points="515.21 364.16 513.45 352.57 520.57 343.26 493.13 347.37 515.21 364.16"/><path class="cls-29" d="M599.05,403.42c15.34,5.84,31.57,20.12,32.14,32.35"/><polygon class="cls-3" points="602.68 412.34 601.41 404.29 606.32 397.8 587.26 400.75 602.68 412.34"/><path class="cls-26" d="M495,697.49c-26,3.54-60.66-3.49-72.14-19.3"/><polygon class="cls-3" points="483.44 687.94 491.14 698.05 489.21 710.62 513.21 692.43 483.44 687.94"/><path class="cls-26" d="M1082.62,342.65c-11.26,23.69-36.13,48.86-55.64,49.82"/><polygon class="cls-3" points="1068.28 347.13 1080.96 346.21 1090.42 354.71 1088.34 324.67 1068.28 347.13"/><path class="cls-26" d="M1245.52,566.13c10,24.23,12,59.56-.35,74.68"/><polygon class="cls-3" points="1239.22 579.76 1247.05 569.74 1259.69 568.41 1236.01 549.82 1239.22 579.76"/><path class="cls-26" d="M1250.87,106.06c4.88,31.81-9.19,55.9,4.3,72.75"/><polygon class="cls-3" points="1241.32 117.56 1251.48 109.92 1264.04 111.94 1246.01 87.82 1241.32 117.56"/><path class="cls-26" d="M707.35,584.46c24.66-20.68,52.56-21.16,60-41.43"/><polygon class="cls-3" points="722.14 586.65 710.34 581.93 705.55 570.16 694.29 598.08 722.14 586.65"/><path class="cls-26" d="M333.08,278.3c4.88,31.81-9.19,55.9,4.3,72.75"/><polygon class="cls-3" points="323.53 289.8 333.69 282.16 346.25 284.18 328.22 260.06 323.53 289.8"/><path class="cls-26" d="M202.08,142.3c4.88,31.81-9.19,55.9,4.3,72.75"/><polygon class="cls-3" points="192.53 153.8 202.69 146.16 215.25 148.18 197.22 124.06 192.53 153.8"/><path class="cls-26" d="M54.5,355.52c4.71-31.84,25.25-50.72,17.31-70.79"/><polygon class="cls-3" points="67.02 347.34 55.06 351.65 43.66 346.03 53.78 374.38 67.02 347.34"/><path class="cls-26" d="M108.08,415.3c4.88,31.81-9.19,55.9,4.3,72.75"/><polygon class="cls-3" points="98.53 426.8 108.69 419.16 121.25 421.18 103.22 397.06 98.53 426.8"/><path class="cls-26" d="M974.56,173.47c-10.27,30.5-33.83,45.44-29.58,66.6"/><polygon class="cls-3" points="960.79 179.3 973.33 177.18 983.56 184.73 978.61 155.04 960.79 179.3"/><path class="cls-26" d="M727.44,37.9C701,56.19,673.14,54.05,663.88,73.54"/><polygon class="cls-3" points="712.92 34.33 724.23 40.14 727.9 52.31 741.72 25.56 712.92 34.33"/><path class="cls-30" d="M763.55,506.42C741,483.07,738.78,455,718,448.91"/><polygon class="cls-4" points="777.63 518.2 764.95 493.3 762.7 505.31 751.14 509.3 777.63 518.2"/><path class="cls-30" d="M1059.63,272c5-32.08,26.06-50.77,18.36-71"/><polygon class="cls-4" points="1058.74 290.3 1070.94 265.17 1060 270.61 1049.85 263.81 1058.74 290.3"/><path class="cls-30" d="M1049.25,493.5c-13.12-29.7-5.49-56.8-22.92-69.72"/><polygon class="cls-4" points="1058.39 509.42 1055.1 481.68 1048.83 492.17 1036.61 491.92 1058.39 509.42"/><path class="cls-30" d="M1151.66,516.63c29.57,13.4,41.94,38.68,63.55,36.69"/><polygon class="cls-4" points="1134.22 510.86 1155.18 529.35 1152.86 517.34 1162.13 509.38 1134.22 510.86"/><path class="cls-31" d="M1235.18,335.35c6.91-16.33,22.85-19.13,19.13-34.56"/><polygon class="cls-4" points="1232.28 347.9 1243.97 332.16 1235.71 334.49 1229.59 328.48 1232.28 347.9"/><path class="cls-30" d="M206.6,526c-13.12-29.7-5.48-56.8-22.92-69.72"/><polygon class="cls-4" points="215.75 541.91 212.45 514.16 206.18 524.65 193.96 524.41 215.75 541.91"/><path class="cls-32" d="M442.31,179.7c-22.37-23.47-15.53-51.49-38.63-58.56"/><polygon class="cls-5" points="452.6 188.53 443.42 170.05 441.66 178.9 433.1 181.76 452.6 188.53"/><path class="cls-32" d="M925.19,244.91c-17.89-27-6.24-53.42-27.75-64.43"/><polygon class="cls-5" points="933.77 255.41 927.98 235.6 924.7 244.01 915.77 245.32 933.77 255.41"/><path class="cls-30" d="M256.52,654.09c-29.87-12.6-34.77-41-58.78-38.3"/><polygon class="cls-4" points="269.47 658.09 253.69 644.8 255.61 653.62 248.9 659.66 269.47 658.09"/><path class="cls-10" d="M362.43,667.51c-24.87-21.16-20.72-49.91-44.49-54.68"/><polygon class="cls-5" points="365.73 658.33 373.27 675.06 355.02 673.23 365.73 658.33"/><path class="cls-10" d="M1003.47,559.86c-18.63-26.82-7.26-53.55-29-64.25"/><polygon class="cls-5" points="1009 551.83 1012.02 569.93 994.84 563.49 1009 551.83"/><path class="cls-33" d="M1161.69,203.34c8.37-16.89,25-18.6,24.38-32.58"/><polygon class="cls-5" points="1167.3 203.91 1158.99 210.47 1157.46 199.99 1167.3 203.91"/><path class="cls-34" d="M1162.57,340.65c-1.38,21.29-19.75,27.55-11.92,43.38"/><polygon class="cls-5" points="1156 342.7 1162.13 331.4 1168.86 342.36 1156 342.7"/><path class="cls-10" d="M1195.06,465.34c-24.87-21.16-20.72-49.92-44.5-54.68"/><polygon class="cls-5" points="1198.36 456.16 1205.9 472.88 1187.64 471.06 1198.36 456.16"/><path class="cls-35" d="M1025.87,691.51c-23,6.34-33.57-13.26-48.89,2.2"/><polygon class="cls-5" points="1021.01 685.08 1035.91 687.39 1026.46 699.13 1021.01 685.08"/><path class="cls-10" d="M553.06,121.34c-24.87-21.16-20.72-49.92-44.5-54.68"/><polygon class="cls-5" points="556.36 112.16 563.9 128.88 545.64 127.06 556.36 112.16"/><path class="cls-10" d="M320.12,475.78c-32.15,5.73-51.69-15.77-70.5-.46"/><polygon class="cls-5" points="315.14 467.4 332.84 472.22 319.81 485.14 315.14 467.4"/><path class="cls-26" d="M977.06,65.53c-32.29,4.89-51.27-17.1-70.46-2.28"/><polygon class="cls-3" points="972.29 57.02 989.87 62.29 976.51 74.87 972.29 57.02"/><line class="cls-26" x1="139.68" y1="242.14" x2="139.68" y2="294.35"/><path class="cls-3" d="M139.68,307.14c-2.24-6-6.05-13.49-10.09-18.12l10.09,3.65L149.76,289C145.72,293.65,141.91,301.12,139.68,307.14Z"/><line class="cls-26" x1="710.68" y1="305.14" x2="710.68" y2="357.35"/><path class="cls-3" d="M710.68,370.14c-2.24-6-6-13.49-10.09-18.12l10.09,3.65L720.76,352C716.72,356.65,712.91,364.12,710.68,370.14Z"/><line class="cls-26" x1="631.14" y1="148.45" x2="664.12" y2="188.92"/><path class="cls-3" d="M672.21,198.83c-5.54-3.25-13.21-6.63-19.27-7.67l10.12-3.55,5.51-9.19C668.37,184.56,670.13,192.76,672.21,198.83Z"/><line class="cls-26" x1="713.9" y1="146.22" x2="756.91" y2="175.81"/><path class="cls-3" d="M767.45,183.07c-6.23-1.58-14.54-2.67-20.65-2l8.72-6.24,2.72-10.37C759.76,170.44,763.75,177.81,767.45,183.07Z"/><line class="cls-26" x1="927.68" y1="504.14" x2="927.68" y2="556.35"/><path class="cls-3" d="M927.68,569.14c-2.24-6-6-13.49-10.09-18.12l10.09,3.65L937.76,551C933.72,555.65,929.91,563.12,927.68,569.14Z"/><line class="cls-36" x1="633.68" y1="589.14" x2="633.68" y2="663.17"/><path class="cls-3" d="M633.68,678.14c-2.62-7-7.08-15.78-11.8-21.2l11.8,4.26,11.79-4.26C640.75,662.36,636.29,671.1,633.68,678.14Z"/><line class="cls-15" x1="577.94" y1="406.5" x2="535.75" y2="437.25"/><path class="cls-2" d="M525.41,444.78c3.55-5.35,7.34-12.83,8.71-18.82l3,10.3,8.88,6C539.87,441.72,531.59,443,525.41,444.78Z"/><line class="cls-15" x1="369.25" y1="557.16" x2="321.74" y2="578.81"/><path class="cls-2" d="M310.1,584.12c4.55-4.53,9.77-11.1,12.31-16.69l.86,10.69,7.5,7.66C324.88,584,316.51,583.65,310.1,584.12Z"/><line class="cls-37" x1="252.37" y1="325.32" x2="218.39" y2="413.42"/><path class="cls-2" d="M213.82,425.27c.08-6.38-.78-14.65-2.86-20.38l8,7,10.64.23C224.24,414.93,218,420.49,213.82,425.27Z"/><line class="cls-15" x1="43.68" y1="457.14" x2="86.21" y2="487.41"/><path class="cls-2" d="M96.64,494.83c-6.21-1.67-14.5-2.9-20.61-2.29l8.81-6.1,2.88-10.33C89.15,482.08,93,489.52,96.64,494.83Z"/><line class="cls-38" x1="485.94" y1="65.11" x2="420.78" y2="41.52"/><path class="cls-2" d="M407.12,36.58c7.29-.06,16.74-1.24,23.24-3.76l-7.79,9.35V54.35C419.19,48.25,412.68,41.29,407.12,36.58Z"/><line class="cls-39" x1="364.35" y1="106.32" x2="325.74" y2="92.34"/><path class="cls-2" d="M314.26,88.19c6.13,0,14.06-1,19.53-3.16l-6.55,7.85v10.23C324.4,98,318.94,92.14,314.26,88.19Z"/><line class="cls-40" x1="1234.68" y1="273.84" x2="1213.61" y2="266.21"/><path class="cls-2" d="M1205.26,263.19a44.53,44.53,0,0,0,14.2-2.3l-4.76,5.71V274A44.05,44.05,0,0,0,1205.26,263.19Z"/><line class="cls-41" x1="1169.08" y1="691.88" x2="1125.55" y2="693.08"/><path class="cls-2" d="M1113.75,693.4c5.49-2.21,12.29-5.92,16.46-9.76L1127.1,693l3.62,9.21C1126.34,698.63,1119.36,695.31,1113.75,693.4Z"/><line class="cls-26" x1="1077.38" y1="619.16" x2="1059.58" y2="666.93"/><path class="cls-3" d="M1055.12,678.92c0-6.42-1-14.75-3.13-20.5l8.18,6.94,10.72.1C1065.49,668.39,1059.31,674.06,1055.12,678.92Z"/><line class="cls-38" x1="124.09" y1="212.72" x2="58.92" y2="189.13"/><path class="cls-2" d="M45.26,184.19c7.29-.06,16.74-1.24,23.25-3.77l-7.79,9.36V202C57.33,195.85,50.83,188.9,45.26,184.19Z"/><line class="cls-38" x1="574" y1="25.29" x2="637.94" y2="52.02"/><path class="cls-2" d="M651.35,57.62c-7.29-.29-16.78.43-23.4,2.63l8.23-9,.6-12.16C639.86,45.38,646,52.65,651.35,57.62Z"/><path class="cls-26" d="M548.41,17.86c-42.1-32.25-102.36-14.12-122.89,5.87"/><polygon class="cls-3" points="550.94 12.02 555.18 23.64 543 21.5 550.94 12.02"/><path class="cls-42" d="M198.45,67.36c24.49-30.12,53-13.27,70.14-7.09"/><polygon class="cls-2" points="206.84 70.33 191.57 77.3 193.16 60.59 206.84 70.33"/><line class="cls-26" x1="288.42" y1="95.34" x2="274.37" y2="145.62"/><path class="cls-3" d="M270.93,157.94c-.53-6.4-2.19-14.62-4.83-20.16l8.73,6.22,10.69-.8C280.38,146.58,274.7,152.74,270.93,157.94Z"/><path class="cls-37" d="M280.23,163.84c10.89-7.89,30.53-10.44,44.23-6.38"/><polygon class="cls-2" points="337.17 165.7 314.39 162.19 323.22 157.33 323.37 147.25 337.17 165.7"/><path class="cls-10" d="M843.33,653.44c-12.35-30.23,4.56-53.85-14.36-69"/><polygon class="cls-5" points="850.48 646.8 849.49 665.12 834.12 655.11 850.48 646.8"/><line class="cls-26" x1="888.68" y1="691.14" x2="888.68" y2="638.94"/><path class="cls-3" d="M888.68,626.14c2.23,6,6,13.49,10.08,18.12l-10.08-3.65-10.08,3.65C882.63,639.63,886.44,632.16,888.68,626.14Z"/><polygon class="cls-4" points="1196.32 477.92 1257.89 513.47 1257.89 442.37 1196.32 477.92"/><rect class="cls-5" x="1298.3" y="511.91" width="44.53" height="44.53" transform="translate(1175.58 1951.29) rotate(-106.18)"/><polygon class="cls-5" points="1555.28 655.86 1524.39 655.86 1508.95 682.61 1524.39 709.36 1555.28 709.36 1570.72 682.61 1555.28 655.86"/><circle class="cls-5" cx="1334.84" cy="688.31" r="40.11"/><path class="cls-5" d="M1373,565.07l-70.1,18.78a3.46,3.46,0,0,0-1.55,5.79L1352.71,641a3.46,3.46,0,0,0,5.78-1.55l18.79-70.1A3.46,3.46,0,0,0,1373,565.07Z"/><rect class="cls-2" x="1388.25" y="618.22" width="110.18" height="110.18" rx="15.33" transform="translate(2033.37 -806.02) rotate(86.74)"/><rect class="cls-5" x="1759.09" y="-1.61" width="110.18" height="110.18" rx="15.33" transform="translate(1764.27 -1760.8) rotate(86.74)"/><polygon class="cls-5" points="1854.12 133.03 1823.23 133.03 1807.79 159.78 1823.23 186.53 1854.12 186.53 1869.56 159.78 1854.12 133.03"/><rect class="cls-5" x="1712.35" y="136.65" width="75.65" height="75.65" transform="translate(2123.05 -1544.39) rotate(96.55)"/><rect class="cls-5" x="1669.67" y="5.48" width="63" height="63" transform="translate(1547.74 -1657.67) rotate(83.58)"/><circle class="cls-5" cx="1654.17" cy="127.98" r="34.73"/><circle class="cls-5" cx="1826.67" cy="219.48" r="14"/><rect class="cls-5" x="1521.09" y="101.39" width="80.18" height="80.18" rx="6.78" transform="translate(1522.47 -1425.61) rotate(83.41)"/><rect class="cls-4" x="1774.9" y="251.85" width="75.95" height="75.95" transform="translate(2102.7 -1523.05) rotate(90)"/><circle class="cls-5" cx="1769.17" cy="383.98" r="32.5"/><rect class="cls-3" x="1581.59" y="284.89" width="84.17" height="84.17" transform="translate(706.77 -1052.34) rotate(45)"/><rect class="cls-5" x="1697.65" y="239.48" width="44.53" height="44.53" transform="translate(1981.65 -1458.17) rotate(90)"/><polygon class="cls-5" points="1563.91 210.47 1528.26 226.74 1524.52 265.75 1556.44 288.49 1592.09 272.22 1595.83 233.21 1563.91 210.47"/><rect class="cls-3" x="1569.17" y="39.98" width="78" height="39" transform="translate(3200.11 295.05) rotate(-173.7)"/><circle class="cls-5" cx="1517.67" cy="38.48" r="40.11"/><rect class="cls-5" x="1822.08" y="351.31" width="52.19" height="77.4" transform="translate(30.93 -125.23) rotate(3.91)"/><path class="cls-5" d="M1678.88,185.24,1608.78,204a3.46,3.46,0,0,0-1.55,5.79l51.32,51.31a3.46,3.46,0,0,0,5.78-1.55l18.78-70.1A3.45,3.45,0,0,0,1678.88,185.24Z"/><rect class="cls-5" x="1672.42" y="342.76" width="78" height="25.18" transform="translate(958.18 1932.64) rotate(-76.2)"/><rect class="cls-5" x="1466.35" y="299.65" width="75.65" height="75.65" transform="translate(2010.94 -1118.41) rotate(96.55)"/><rect class="cls-5" x="1616.09" y="413.39" width="110.18" height="110.18" rx="15.33" transform="translate(2844.21 -810.69) rotate(116.86)"/><rect class="cls-5" x="1392.09" y="155.39" width="110.18" height="110.18" rx="15.33" transform="translate(1574.91 -1246.33) rotate(86.74)"/><polygon class="cls-2" points="1801.62 446.13 1758.16 465.96 1753.6 513.5 1792.5 541.23 1835.96 521.4 1840.52 473.85 1801.62 446.13"/><polygon class="cls-2" points="1302.73 401.74 1333.62 401.74 1349.06 375 1333.62 348.25 1302.73 348.25 1287.29 375 1302.73 401.74"/><rect class="cls-5" x="1790.17" y="622.3" width="63" height="63" transform="translate(1375.63 2537.14) rotate(-96.42)"/><ellipse class="cls-5" cx="1327.97" cy="24.53" rx="30.03" ry="28.47"/><circle class="cls-5" cx="1580.67" cy="391.48" r="14"/><rect class="cls-5" x="1364.59" y="289.21" width="80.18" height="80.18" rx="6.78" transform="translate(1238.83 1762.49) rotate(-96.59)"/><polygon class="cls-5" points="1806.1 563.09 1867.67 598.64 1867.67 527.54 1806.1 563.09"/><circle class="cls-5" cx="1532.17" cy="456.98" r="52.5"/><rect class="cls-5" x="1692.09" y="550.71" width="84.17" height="84.17" transform="translate(2541.25 2238.22) rotate(-135)"/><rect class="cls-5" x="1400.67" y="-2.23" width="44.53" height="44.53" transform="translate(1402.91 1442.97) rotate(-90)"/><polygon class="cls-5" points="1332.94 234.31 1368.59 218.04 1372.33 179.03 1340.41 156.29 1304.76 172.56 1301.02 211.56 1332.94 234.31"/><circle class="cls-3" cx="1328.17" cy="459.3" r="40.11"/><rect class="cls-4" x="1400.58" y="381.07" width="52.19" height="77.4" transform="translate(1006.91 1846.44) rotate(-90)"/><rect class="cls-4" x="1269.39" y="95.27" width="59.9" height="25.18" transform="translate(1819.37 -1087.75) rotate(108.76)"/><rect class="cls-5" x="1298.95" y="247.68" width="49.83" height="49.83" transform="translate(902.12 1556.75) rotate(-83.45)"/><rect class="cls-3" x="1524.59" y="537.21" width="110.18" height="110.18" rx="15.33" transform="translate(1078.29 2203.14) rotate(-93.26)"/><polygon class="cls-2" points="1374.23 150.65 1417.69 130.82 1422.24 83.27 1383.35 55.55 1339.89 75.38 1335.33 122.93 1374.23 150.65"/><rect class="cls-5" x="1408.09" y="493.39" width="84.17" height="84.17" transform="translate(2096.96 1939.55) rotate(-135)"/><polygon class="cls-2" points="1702.86 722.02 1729.49 682.37 1708.47 639.48 1660.82 636.24 1634.18 675.89 1655.2 718.78 1702.86 722.02"/><circle class="cls-5" cx="1378.29" cy="509.11" r="14"/><circle class="cls-3" cx="1466.34" cy="111.13" r="14"/><path class="cls-8" d="M1465.09,645c6.94-20.76,27.14-51.21,85.87-49.51"/><polygon class="cls-5" points="1479.22 644.09 1461.45 663.65 1453.39 638.49 1479.22 644.09"/><path class="cls-9" d="M1385.9,94.69c14.63-12,42.3-23.25,78.16,14.44"/><polygon class="cls-5" points="1397.04 100.69 1374.34 107.13 1380.11 84.25 1397.04 100.69"/><path class="cls-43" d="M1297,454.22c-18.33-8.41-38.81-35-45.33-57.82"/><polygon class="cls-44" points="1250.43 375.54 1265.02 403.81 1252.42 397.91 1241.05 405.93 1250.43 375.54"/><path class="cls-13" d="M1328.53,445.86c7.12-14.95,25.12-37.53,69-38.49"/><polygon class="cls-5" points="1338.74 446.56 1324.13 458.91 1320.73 440.08 1338.74 446.56"/><path class="cls-10" d="M1658.07,439.69c-15-13.44-26.77-44.86-26.26-68.62"/><polygon class="cls-5" points="1636.76 350.76 1642.36 382.08 1632.05 372.73 1618.83 377.04 1636.76 350.76"/><path class="cls-10" d="M1661.6,660.82c-18.33-8.4-38.81-35-45.34-57.82"/><polygon class="cls-5" points="1615 582.14 1629.59 610.41 1616.98 604.52 1605.62 612.54 1615 582.14"/><path class="cls-45" d="M1351.59,676.68c12.91,8.73,41.52,13.11,61.49,9.71"/><polygon class="cls-46" points="1427.85 681.27 1409.69 696.64 1411.87 686.47 1404.12 679.53 1427.85 681.27"/><path class="cls-17" d="M1245.11,476.6c10.86,6.63,31.08,7.73,44.6,2.85"/><polygon class="cls-5" points="1300.76 472.1 1288.92 488.45 1288.65 479.63 1280.86 475.48 1300.76 472.1"/><path class="cls-15" d="M1489,316c-23-13.16-46.91-41.46-45.87-61.53"/><polygon class="cls-2" points="1490.69 303.69 1504.38 322.34 1481.38 324.87 1490.69 303.69"/><path class="cls-22" d="M1769.69,147.56c23.07-13.45,46.52-42.11,44.86-62.27"/><polygon class="cls-2" points="1777.47 156.5 1754.18 154.14 1767.88 135.15 1777.47 156.5"/><path class="cls-23" d="M1631.08,455.77c-5.76-25.77-25.64-57-45-62.19"/><polygon class="cls-2" points="1641.73 451.15 1632.65 472.2 1618.96 453.8 1641.73 451.15"/><path class="cls-10" d="M1463.6,509.82c-18.33-8.4-38.81-35-45.34-57.82"/><polygon class="cls-5" points="1417 431.14 1431.59 459.42 1418.98 453.52 1407.62 461.54 1417 431.14"/><path class="cls-10" d="M1764.19,378.82c.69-20.15,17.31-49.28,35.88-64.11"/><polygon class="cls-5" points="1818.84 305.5 1798.37 329.86 1798.95 315.96 1787.17 308.56 1818.84 305.5"/><path class="cls-10" d="M1294.6,120.82c-18.33-8.4-38.81-35-45.34-57.82"/><polygon class="cls-5" points="1248 42.14 1262.59 70.42 1249.98 64.52 1238.62 72.54 1248 42.14"/><path class="cls-26" d="M1545.75,494.11c14.85,21.61,24.17,55.75,15.22,73.12"/><polygon class="cls-3" points="1542.43 508.76 1548 497.32 1560.09 493.39 1533.05 480.15 1542.43 508.76"/><path class="cls-26" d="M1509.85,335c24.23-10,59.56-12,74.68.35"/><polygon class="cls-3" points="1523.48 341.31 1513.46 333.48 1512.13 320.84 1493.54 344.52 1523.48 341.31"/><path class="cls-27" d="M1823.82,503.52c19.26,7.6,37,25.72,33.9,41"/><polygon class="cls-3" points="1828.51 515.28 1826.91 504.7 1833.41 496.19 1808.33 499.93 1828.51 515.28"/><path class="cls-29" d="M1392.16,506.89c16.32-1.72,37.25,3.69,43.28,14.35"/><polygon class="cls-3" points="1399.42 513.21 1394.66 506.6 1396.1 498.59 1380.44 509.84 1399.42 513.21"/><path class="cls-26" d="M1487.85,189.19c23.69,11.26,48.86,36.12,49.82,55.64"/><polygon class="cls-3" points="1492.32 203.52 1491.41 190.84 1499.9 181.38 1469.87 183.47 1492.32 203.52"/><path class="cls-26" d="M1711.32,26.29c24.23-10,59.56-12,74.68.35"/><polygon class="cls-3" points="1724.95 32.58 1714.93 24.76 1713.61 12.11 1695.02 35.79 1724.95 32.58"/><path class="cls-26" d="M1251.25,20.93c31.82-4.88,55.91,9.2,72.75-4.29"/><polygon class="cls-3" points="1262.76 30.49 1255.12 20.32 1257.13 7.77 1233.02 25.79 1262.76 30.49"/><path class="cls-26" d="M1729.65,564.45c-20.68-24.66-21.15-52.55-41.43-60"/><polygon class="cls-3" points="1731.85 549.66 1727.13 561.46 1715.35 566.26 1743.28 577.51 1731.85 549.66"/><path class="cls-26" d="M1370.49,582.72c31.81-4.87,55.91,9.2,72.75-4.29"/><polygon class="cls-3" points="1381.99 592.28 1374.36 582.11 1376.37 569.56 1352.26 587.58 1381.99 592.28"/><path class="cls-47" d="M1340,218.59c5.77,14.77-4.69,40-5.48,51.91"/><polygon class="cls-3" points="1337.19 228.5 1341.05 221.07 1349.08 218.68 1331.5 209.5 1337.19 228.5"/><path class="cls-30" d="M1651.61,508.26c-23.34,22.56-51.41,24.76-57.51,45.58"/><polygon class="cls-4" points="1663.39 494.17 1638.49 506.85 1650.51 509.11 1654.5 520.66 1663.39 494.17"/><path class="cls-30" d="M1417.15,212.17c-32.07-5-50.76-26-71.05-18.35"/><polygon class="cls-4" points="1435.5 213.07 1410.36 200.86 1415.81 211.8 1409.01 221.95 1435.5 213.07"/><path class="cls-30" d="M1638.7,222.56c-29.7,13.11-56.8,5.48-69.72,22.91"/><polygon class="cls-4" points="1654.62 213.41 1626.87 216.71 1637.36 222.98 1637.12 235.19 1654.62 213.41"/><path class="cls-30" d="M1661.82,120.15c13.4-29.57,38.69-41.95,36.7-63.55"/><polygon class="cls-4" points="1656.05 137.58 1674.54 116.63 1662.54 118.95 1654.58 109.68 1656.05 137.58"/><path class="cls-31" d="M1480.54,36.62c-16.32-6.9-19.12-22.85-34.55-19.13"/><polygon class="cls-4" points="1493.1 39.53 1477.35 27.84 1479.68 36.09 1473.67 42.21 1493.1 39.53"/><path class="cls-32" d="M1390.1,346.61c-27,17.9-53.41,6.25-64.43,27.76"/><polygon class="cls-5" points="1400.6 338.03 1380.8 343.82 1389.2 347.11 1390.52 356.04 1400.6 338.03"/><path class="cls-10" d="M1705.06,268.34c-26.83,18.62-53.56,7.25-64.25,29"/><polygon class="cls-5" points="1697.03 262.8 1715.12 259.79 1708.69 276.97 1697.03 262.8"/><path class="cls-34" d="M1485.85,109.24c21.29,1.37,27.55,19.75,43.37,11.91"/><polygon class="cls-5" points="1487.9 115.81 1476.6 109.68 1487.56 102.95 1487.9 115.81"/><path class="cls-10" d="M1610.54,76.75c-21.17,24.87-49.92,20.71-54.69,44.49"/><polygon class="cls-5" points="1601.36 73.45 1618.08 65.91 1616.25 84.16 1601.36 73.45"/><path class="cls-35" d="M1836.71,245.93c6.33,23-13.26,33.57,2.2,48.89"/><polygon class="cls-5" points="1830.27 250.79 1832.58 235.9 1844.33 245.35 1830.27 250.79"/><line class="cls-26" x1="1450.34" y1="561.13" x2="1502.54" y2="561.13"/><path class="cls-3" d="M1515.34,561.13c-6,2.23-13.49,6-18.12,10.08l3.64-10.08-3.64-10.08C1501.85,555.09,1509.32,558.9,1515.34,561.13Z"/><line class="cls-48" x1="1258.72" y1="669.12" x2="1331.12" y2="610.11"/><path class="cls-3" d="M1344,599.6c-4.24,7.2-8.64,17.18-10,25.06l-4.61-13.17-12-7.17C1325.46,604.59,1336.12,602.3,1344,599.6Z"/><line class="cls-26" x1="1310" y1="361" x2="1314.11" y2="301.76"/><path class="cls-3" d="M1315,289c1.81,6.16,5.1,13.88,8.8,18.78l-9.8-4.34-10.31,2.94C1308,302,1312.36,294.85,1315,289Z"/><line class="cls-26" x1="1649.34" y1="344.13" x2="1701.54" y2="344.13"/><path class="cls-3" d="M1714.34,344.13c-6,2.23-13.49,6-18.12,10.08l3.64-10.08-3.64-10.08C1700.85,338.09,1708.32,341.9,1714.34,344.13Z"/><line class="cls-36" x1="1734.34" y1="638.13" x2="1808.36" y2="638.13"/><path class="cls-3" d="M1823.34,638.13c-7,2.61-15.79,7.07-21.21,11.8l4.27-11.8-4.27-11.8C1807.55,631.06,1816.29,635.52,1823.34,638.13Z"/><line class="cls-40" x1="1419.03" y1="37.12" x2="1411.4" y2="58.2"/><path class="cls-2" d="M1408.38,66.54a44.3,44.3,0,0,0-2.3-14.2l5.72,4.76h7.44A44.49,44.49,0,0,0,1408.38,66.54Z"/><line class="cls-41" x1="1837.08" y1="102.73" x2="1838.27" y2="146.25"/><path class="cls-2" d="M1838.6,158.06c-2.22-5.5-5.92-12.29-9.76-16.46l9.39,3.11,9.21-3.62C1843.83,145.46,1840.5,152.45,1838.6,158.06Z"/><line class="cls-26" x1="1764.35" y1="194.43" x2="1812.13" y2="212.22"/><path class="cls-3" d="M1824.12,216.69c-6.42,0-14.75,1-20.5,3.12l6.94-8.17.1-10.72C1813.59,206.32,1819.26,212.5,1824.12,216.69Z"/><line class="cls-26" x1="1254.77" y1="531.95" x2="1306.97" y2="531.42"/><path class="cls-3" d="M1319.76,531.3c-6,2.29-13.42,6.18-18,10.26l3.54-10.12-3.75-10C1306.21,525.39,1313.72,529.12,1319.76,531.3Z"/><path class="cls-10" d="M1798.63,428.47c-30.23,12.35-53.85-4.56-69,14.36"/><polygon class="cls-5" points="1792 421.32 1810.32 422.32 1800.3 437.69 1792 421.32"/><line class="cls-26" x1="1836.34" y1="383.13" x2="1784.13" y2="383.13"/><path class="cls-3" d="M1771.34,383.13c6-2.23,13.49-6.05,18.12-10.08l-3.65,10.08,3.65,10.08C1784.83,389.17,1777.36,385.36,1771.34,383.13Z"/></svg>