<?xml version="1.0" encoding="utf-8"?>
<svg version="1.1" id="Capa_1" xmlns="http://www.w3.org/2000/svg" xmlns:xlink="http://www.w3.org/1999/xlink" x="0px" y="0px"
	 viewBox="0 0 284.9 120.4" style="enable-background:new 0 0 284.9 120.4;" xml:space="preserve">
<style type="text/css">
	.st0{fill:#00007C;}
	.st1{fill:#1DA2B6;}
	.st2{fill:url(#SVGID_1_);}
	.st3{fill:url(#SVGID_2_);}
	.st4{fill:url(#SVGID_3_);}
</style>
<g>
	<g>
		<path class="st0" d="M117.3,53.7v9.6c-0.2,0.1-0.6,0.2-1,0.3c-0.4,0.1-0.9,0.1-1.4,0.1c-1,0-1.7-0.2-2.1-0.5s-0.6-1-0.6-1.8v-24
			c0-0.5,0.1-0.9,0.4-1.2c0.3-0.3,0.7-0.5,1.2-0.7c1-0.3,2.1-0.6,3.4-0.7s2.6-0.2,3.8-0.2c4,0,7,0.9,9,2.6c1.9,1.7,2.9,4,2.9,6.9
			c0,2.9-1,5.3-2.9,7s-4.8,2.6-8.7,2.6H117.3z M121.1,49.6c2.1,0,3.8-0.5,5.1-1.4c1.2-0.9,1.8-2.3,1.8-4.2c0-1.9-0.6-3.2-1.7-4.1
			s-2.8-1.3-5-1.3c-0.7,0-1.4,0-2.1,0.1c-0.7,0.1-1.3,0.1-1.9,0.2v10.7H121.1z"/>
		<path class="st0" d="M142.1,63.3c-0.2,0.1-0.5,0.2-0.9,0.3c-0.4,0.1-0.8,0.1-1.3,0.1c-0.9,0-1.6-0.2-2-0.5
			c-0.4-0.3-0.7-0.9-0.7-1.7V46.2c0-0.8,0.2-1.4,0.5-1.9s0.8-0.9,1.5-1.4c0.9-0.6,2-1,3.4-1.4c1.4-0.4,2.9-0.6,4.6-0.6
			c2.7,0,4.1,0.8,4.1,2.3c0,0.4-0.1,0.7-0.2,1c-0.1,0.3-0.3,0.6-0.4,0.9c-0.3-0.1-0.7-0.1-1.2-0.2c-0.5-0.1-1-0.1-1.5-0.1
			c-1.2,0-2.4,0.1-3.4,0.4s-1.9,0.6-2.6,1V63.3z"/>
		<path class="st0" d="M175.8,52.5c0,1.8-0.3,3.4-0.8,4.8c-0.5,1.4-1.3,2.6-2.2,3.6c-0.9,1-2.1,1.8-3.5,2.3s-2.9,0.8-4.6,0.8
			c-1.7,0-3.2-0.3-4.6-0.8s-2.5-1.3-3.5-2.3c-0.9-1-1.7-2.2-2.2-3.6c-0.5-1.4-0.8-3-0.8-4.8s0.3-3.4,0.8-4.8
			c0.5-1.4,1.3-2.6,2.2-3.6c1-1,2.1-1.8,3.5-2.3c1.4-0.5,2.9-0.8,4.5-0.8c1.6,0,3.2,0.3,4.5,0.8c1.4,0.5,2.5,1.3,3.5,2.3
			c1,1,1.7,2.2,2.2,3.6C175.5,49.2,175.8,50.8,175.8,52.5z M164.8,44.9c-1.9,0-3.3,0.7-4.4,2c-1.1,1.3-1.6,3.2-1.6,5.6
			s0.5,4.3,1.6,5.6c1.1,1.3,2.5,2,4.5,2c1.9,0,3.4-0.7,4.5-2c1.1-1.3,1.6-3.2,1.6-5.6c0-2.4-0.5-4.3-1.6-5.6S166.7,44.9,164.8,44.9z
			"/>
		<path class="st0" d="M191.8,44.9c-1,0-1.9,0.2-2.7,0.5c-0.8,0.3-1.6,0.8-2.2,1.5c-0.6,0.7-1.1,1.5-1.4,2.4c-0.4,0.9-0.5,2-0.5,3.3
			c0,2.5,0.6,4.3,1.9,5.6c1.3,1.3,2.9,1.9,5,1.9c1.2,0,2.2-0.2,3-0.5c0.8-0.3,1.6-0.7,2.2-1.1c0.4,0.2,0.7,0.5,1,0.9
			c0.2,0.3,0.4,0.8,0.4,1.3c0,1-0.6,1.8-1.9,2.4c-1.3,0.7-2.9,1-5,1c-1.7,0-3.3-0.2-4.7-0.7c-1.4-0.5-2.6-1.2-3.7-2.1
			c-1-1-1.8-2.2-2.4-3.6c-0.6-1.4-0.9-3.1-0.9-5.1c0-1.9,0.3-3.6,0.9-5.1c0.6-1.5,1.4-2.7,2.5-3.6c1-1,2.3-1.7,3.7-2.2
			c1.4-0.5,2.9-0.7,4.4-0.7c1,0,1.9,0.1,2.8,0.3s1.5,0.4,2.1,0.8s1,0.7,1.4,1.1c0.3,0.4,0.5,0.9,0.5,1.3c0,0.4-0.1,0.8-0.3,1.2
			c-0.2,0.4-0.5,0.6-0.9,0.8c-0.7-0.4-1.4-0.8-2.2-1.1C193.9,45.1,193,44.9,191.8,44.9z"/>
		<path class="st0" d="M206.6,55c0.4,1.8,1.3,3.1,2.5,3.9c1.3,0.9,2.9,1.3,4.8,1.3c1.3,0,2.5-0.2,3.6-0.6s2-0.8,2.6-1.3
			c0.9,0.5,1.3,1.2,1.3,2.1c0,0.5-0.2,1-0.6,1.5c-0.4,0.5-1,0.8-1.7,1.2c-0.7,0.3-1.5,0.6-2.5,0.8c-0.9,0.2-2,0.3-3.1,0.3
			c-1.8,0-3.4-0.2-4.9-0.7c-1.5-0.5-2.7-1.2-3.8-2.2c-1.1-1-1.9-2.2-2.4-3.7c-0.6-1.5-0.9-3.2-0.9-5.1c0-1.9,0.3-3.5,0.8-4.9
			c0.6-1.4,1.3-2.6,2.3-3.5c1-0.9,2.1-1.7,3.4-2.2c1.3-0.5,2.7-0.7,4.2-0.7s2.8,0.2,4.1,0.7c1.2,0.5,2.3,1.1,3.2,2
			c0.9,0.9,1.6,1.9,2,3c0.5,1.2,0.7,2.5,0.7,3.9c0,0.8-0.2,1.3-0.6,1.7c-0.4,0.4-0.9,0.6-1.6,0.7L206.6,55z M212.4,44.8
			c-1.7,0-3.1,0.6-4.3,1.7c-1.1,1.1-1.7,2.8-1.8,4.9l11.5-1.6c-0.1-1.4-0.6-2.6-1.5-3.6C215.4,45.2,214.1,44.8,212.4,44.8z"/>
		<path class="st0" d="M243.8,57.4c0,2.1-0.8,3.7-2.3,4.9c-1.6,1.2-3.8,1.8-6.8,1.8c-1.2,0-2.3-0.1-3.4-0.3c-1-0.2-1.9-0.5-2.6-0.8
			c-0.7-0.3-1.3-0.7-1.7-1.2c-0.4-0.5-0.6-1-0.6-1.5c0-0.5,0.1-0.9,0.3-1.3c0.2-0.4,0.6-0.7,1-1c0.9,0.6,1.9,1.1,3,1.5
			c1.1,0.5,2.4,0.7,3.9,0.7c1.4,0,2.5-0.2,3.2-0.7c0.7-0.5,1.1-1.2,1.1-2.1c0-0.8-0.3-1.4-0.8-1.9c-0.5-0.5-1.3-0.8-2.3-1.1
			l-3.2-0.8c-2.1-0.6-3.7-1.3-4.7-2.3c-1-1-1.5-2.3-1.5-4c0-0.9,0.2-1.7,0.6-2.5c0.4-0.8,0.9-1.5,1.7-2s1.6-1,2.7-1.4
			c1.1-0.3,2.3-0.5,3.7-0.5c1.1,0,2.1,0.1,3.1,0.3c0.9,0.2,1.7,0.4,2.4,0.7c0.7,0.3,1.2,0.7,1.6,1.1c0.4,0.4,0.6,0.9,0.6,1.4
			c0,0.5-0.1,0.9-0.3,1.3c-0.2,0.4-0.5,0.6-0.8,0.9c-0.6-0.3-1.4-0.7-2.5-1.1c-1.1-0.4-2.3-0.6-3.6-0.6c-1.3,0-2.3,0.2-3.1,0.7
			s-1.1,1.1-1.1,1.9c0,0.6,0.2,1.1,0.6,1.5c0.4,0.4,1.1,0.7,2.2,1l2.7,0.7c2.4,0.6,4.1,1.5,5.2,2.5
			C243.3,54.2,243.8,55.6,243.8,57.4z"/>
		<path class="st0" d="M265.2,57.4c0,2.1-0.8,3.7-2.3,4.9c-1.6,1.2-3.8,1.8-6.8,1.8c-1.2,0-2.3-0.1-3.4-0.3c-1-0.2-1.9-0.5-2.6-0.8
			c-0.7-0.3-1.3-0.7-1.7-1.2c-0.4-0.5-0.6-1-0.6-1.5c0-0.5,0.1-0.9,0.3-1.3c0.2-0.4,0.6-0.7,1-1c0.9,0.6,1.9,1.1,3,1.5
			c1.1,0.5,2.4,0.7,3.9,0.7c1.4,0,2.5-0.2,3.2-0.7c0.7-0.5,1.1-1.2,1.1-2.1c0-0.8-0.3-1.4-0.8-1.9c-0.5-0.5-1.3-0.8-2.3-1.1
			l-3.2-0.8c-2.1-0.6-3.7-1.3-4.7-2.3c-1-1-1.5-2.3-1.5-4c0-0.9,0.2-1.7,0.6-2.5c0.4-0.8,0.9-1.5,1.7-2s1.6-1,2.7-1.4
			c1.1-0.3,2.3-0.5,3.7-0.5c1.1,0,2.1,0.1,3.1,0.3c0.9,0.2,1.7,0.4,2.4,0.7c0.7,0.3,1.2,0.7,1.6,1.1c0.4,0.4,0.6,0.9,0.6,1.4
			c0,0.5-0.1,0.9-0.3,1.3c-0.2,0.4-0.5,0.6-0.8,0.9c-0.6-0.3-1.4-0.7-2.5-1.1c-1.1-0.4-2.3-0.6-3.6-0.6c-1.3,0-2.3,0.2-3.1,0.7
			s-1.1,1.1-1.1,1.9c0,0.6,0.2,1.1,0.6,1.5c0.4,0.4,1.1,0.7,2.2,1l2.7,0.7c2.4,0.6,4.1,1.5,5.2,2.5
			C264.7,54.2,265.2,55.6,265.2,57.4z"/>
	</g>
	<g>
		<g>
			<path class="st1" d="M114.5,88.7c0.7,3.5,3.1,5.3,7,5.3c1.1,0,2.2-0.2,3.1-0.6c0.9-0.4,1.7-0.8,2.2-1.2c0.7,0.4,1,0.9,1,1.5
				c0,0.4-0.2,0.7-0.5,1.1c-0.3,0.4-0.8,0.7-1.4,0.9c-0.6,0.3-1.3,0.5-2,0.6s-1.6,0.2-2.5,0.2c-3.1,0-5.6-0.9-7.5-2.6
				c-1.8-1.7-2.7-4.2-2.7-7.5c0-1.5,0.2-2.9,0.7-4.1c0.4-1.2,1.1-2.2,1.9-3.1c0.8-0.8,1.8-1.5,2.9-1.9c1.1-0.4,2.3-0.7,3.6-0.7
				c1.2,0,2.3,0.2,3.4,0.6c1,0.4,1.9,1,2.7,1.7c0.7,0.7,1.3,1.6,1.7,2.6c0.4,1,0.6,2.1,0.6,3.4c0,0.6-0.1,1-0.4,1.3
				c-0.3,0.3-0.6,0.4-1.1,0.5L114.5,88.7z M120.1,79.5c-1.7,0-3,0.6-4.1,1.7c-1.1,1.2-1.7,2.8-1.7,4.9l11.2-1.5
				c-0.1-1.5-0.7-2.7-1.6-3.7C123,80,121.7,79.5,120.1,79.5z"/>
			<path class="st1" d="M136.9,92c-0.4-0.6-0.8-1.5-1.2-2.5c-0.5-1-0.9-2.1-1.4-3.4s-1-2.6-1.5-4c-0.5-1.4-1-2.8-1.5-4.2
				c0.2-0.3,0.4-0.5,0.8-0.7c0.3-0.2,0.6-0.2,1-0.2c0.5,0,0.8,0.1,1.1,0.4c0.3,0.2,0.5,0.7,0.8,1.2c0.8,2.3,1.7,4.6,2.5,6.8
				c0.9,2.2,1.9,4.5,3,7h0.2c0.4-0.8,0.9-1.9,1.3-3.1c0.5-1.2,0.9-2.5,1.4-3.8c0.4-1.4,0.9-2.7,1.3-4.1s0.7-2.7,1-4
				c0.2-0.1,0.4-0.2,0.6-0.2c0.2-0.1,0.5-0.1,0.8-0.1c0.5,0,0.8,0.1,1.1,0.3c0.3,0.2,0.4,0.6,0.4,1c0,0.5-0.2,1.5-0.6,3
				c-0.4,1.4-0.9,3-1.5,4.8c-0.6,1.8-1.3,3.6-2.1,5.5c-0.8,1.9-1.6,3.6-2.4,5c-1.3,2.3-2.4,4.1-3.4,5.3c-1,1.2-2,1.8-2.8,1.8
				c-0.6,0-1.1-0.2-1.4-0.5c-0.3-0.3-0.5-0.7-0.6-1.1c0.4-0.4,0.9-0.9,1.5-1.5c0.5-0.6,1.1-1.2,1.6-1.9c0.5-0.7,1.1-1.4,1.5-2.1
				c0.5-0.7,0.9-1.4,1.2-2.1c-0.5-0.1-0.9-0.4-1.3-0.7C137.8,93.6,137.4,92.9,136.9,92z"/>
			<path class="st1" d="M154.9,88.7c0.7,3.5,3.1,5.3,7,5.3c1.1,0,2.2-0.2,3.1-0.6c0.9-0.4,1.7-0.8,2.2-1.2c0.7,0.4,1,0.9,1,1.5
				c0,0.4-0.2,0.7-0.5,1.1c-0.3,0.4-0.8,0.7-1.4,0.9c-0.6,0.3-1.3,0.5-2,0.6s-1.6,0.2-2.5,0.2c-3.1,0-5.6-0.9-7.5-2.6
				c-1.8-1.7-2.7-4.2-2.7-7.5c0-1.5,0.2-2.9,0.7-4.1c0.4-1.2,1.1-2.2,1.9-3.1c0.8-0.8,1.8-1.5,2.9-1.9c1.1-0.4,2.3-0.7,3.6-0.7
				c1.2,0,2.3,0.2,3.4,0.6c1,0.4,1.9,1,2.7,1.7c0.7,0.7,1.3,1.6,1.7,2.6c0.4,1,0.6,2.1,0.6,3.4c0,0.6-0.1,1-0.4,1.3
				c-0.3,0.3-0.6,0.4-1.1,0.5L154.9,88.7z M160.6,79.5c-1.7,0-3,0.6-4.1,1.7c-1.1,1.2-1.7,2.8-1.7,4.9l11.2-1.5
				c-0.1-1.5-0.7-2.7-1.6-3.7C163.4,80,162.2,79.5,160.6,79.5z"/>
		</g>
	</g>
	<g>
		
			<linearGradient id="SVGID_1_" gradientUnits="userSpaceOnUse" x1="54.4236" y1="52.0633" x2="-0.1499" y2="106.6367" gradientTransform="matrix(1 0 0 -1 0 120.7244)">
			<stop  offset="0" style="stop-color:#7BA3FF"/>
			<stop  offset="6.660000e-02" style="stop-color:#7793F4"/>
			<stop  offset="0.335" style="stop-color:#6657CD"/>
			<stop  offset="0.463" style="stop-color:#5F3FBD"/>
			<stop  offset="0.6444" style="stop-color:#5D38B8"/>
			<stop  offset="1" style="stop-color:#5A2DB1"/>
		</linearGradient>
		<path class="st2" d="M54.8,16.5L54.8,16.5l-14.1,0h-15h-0.9c-2.8,0-5,2.3-5,5.2v74.6c0,3.7,2.9,6.7,6.5,6.7h9.1
			c3,0,5.4-2.5,5.4-5.5v-17h14.1l0,0c17.8-0.7,31.9-14,31.9-31.5S72.5,17.2,54.8,16.5z M54.8,58.8L54.8,58.8H40.6V38.1l14.1,0l0,0
			c6.1,0.2,10.9,4.6,10.9,9.9C65.7,53.3,60.8,58.6,54.8,58.8z"/>
		
			<linearGradient id="SVGID_2_" gradientUnits="userSpaceOnUse" x1="18.9056" y1="61.4607" x2="83.3495" y2="61.4607" gradientTransform="matrix(1 0 0 -1 0 120.7244)">
			<stop  offset="2.380000e-02" style="stop-color:#3B919D"/>
			<stop  offset="0.5514" style="stop-color:#49D4C1"/>
			<stop  offset="0.8693" style="stop-color:#AAF16F"/>
			<stop  offset="0.8903" style="stop-color:#B8F25C"/>
			<stop  offset="0.9375" style="stop-color:#D4F438"/>
			<stop  offset="0.9757" style="stop-color:#E6F621"/>
			<stop  offset="1" style="stop-color:#ECF619"/>
		</linearGradient>
		<path class="st3" d="M78.6,69.6c1.5-1.7,2.4-5.9,2.4-8.4c0-13.5-12.5-23.1-26.1-23.1c0,0-0.1,0-0.1,0c6.1,0.2,10.9,4.6,10.9,9.9
			c0,5.3-4.9,10.6-10.9,10.8H43.5v0h-1h-0.1h-1.7v21.6h9.5C67.1,81.5,76.5,72.1,78.6,69.6z"/>
		
			<linearGradient id="SVGID_3_" gradientUnits="userSpaceOnUse" x1="35.5163" y1="51.1631" x2="50.6314" y2="51.1631" gradientTransform="matrix(1 0 0 -1 0 120.7244)">
			<stop  offset="0.2047" style="stop-color:#23185B"/>
			<stop  offset="0.2114" style="stop-color:#241A5C;stop-opacity:0.9916"/>
			<stop  offset="0.6014" style="stop-color:#398194;stop-opacity:0.5001"/>
			<stop  offset="0.8716" style="stop-color:#46C3B7;stop-opacity:0.1595"/>
			<stop  offset="0.9982" style="stop-color:#4BDCC5;stop-opacity:0"/>
		</linearGradient>
		<polygon class="st4" points="50.1,80.4 50.1,58.8 40.6,58.8 40.6,67 40.6,67 40.6,80.4 		"/>
	</g>
</g>
</svg>
