<?xml version="1.0" encoding="utf-8"?>
<!-- Generator: Adobe Illustrator 27.5.0, SVG Export Plug-In . SVG Version: 6.00 Build 0)  -->
<svg version="1.1" id="Capa_1" xmlns="http://www.w3.org/2000/svg" xmlns:xlink="http://www.w3.org/1999/xlink" x="0px" y="0px"
	 viewBox="0 0 566 122" style="enable-background:new 0 0 566 122;" xml:space="preserve">
<style type="text/css">
	.st0{fill:none;}
	.st1{fill:#FFFFFF;}
	.st2{fill:#1DA2B6;}
	.st3{fill:url(#SVGID_00000117650659958834706210000011550929867286003872_);}
	.st4{clip-path:url(#SVGID_00000152232827386597311300000012483446679044442761_);}
	.st5{fill:url(#SVGID_00000158716440675787194720000007363440777479799998_);}
	.st6{fill:url(#SVGID_00000045589688643710373920000006237160539420178827_);}
	.st7{fill:url(#SVGID_00000060745085019686686840000009993460019279685285_);}
	.st8{fill:url(#SVGID_00000090254460015047268610000010768905709264058759_);}
	.st9{fill:url(#SVGID_00000036238784111975182150000014258464380455354294_);}
	.st10{fill:url(#SVGID_00000047746615058342013270000009889885855913555619_);}
	.st11{fill:url(#SVGID_00000085935061627427229630000014609480833621264032_);}
	.st12{fill:url(#SVGID_00000168838001849955254470000006322992164157325460_);}
	.st13{fill:url(#SVGID_00000036965069739212248540000013957212842253087386_);}
	.st14{clip-path:url(#SVGID_00000005969670823305476100000004891027474259104183_);}
	.st15{fill:url(#SVGID_00000039125777358592522440000011910922347283343759_);}
	.st16{fill:url(#SVGID_00000074415558675229439490000002890746589685037186_);}
	.st17{fill:url(#SVGID_00000119822136403369891590000010774419407087781021_);}
</style>
<g>
	<path class="st0" d="M204.71,121.93"/>
	<path class="st0" d="M204.71,121.93"/>
	<g>
		<path class="st1" d="M274.23,41.66c0.54-0.3,1.25-0.56,2.13-0.77c0.87-0.21,1.82-0.32,2.85-0.32c3.31,0,5.3,0.96,5.97,2.89
			c0.96,3.07,1.88,5.94,2.76,8.59c0.87,2.65,1.7,5.23,2.49,7.73c0.78,2.5,1.55,4.96,2.31,7.37s1.49,4.91,2.22,7.5h0.45
			c0.78-3.98,1.52-7.83,2.22-11.57c0.69-3.74,1.39-7.47,2.08-11.21c0.69-3.74,1.34-7.52,1.94-11.35s1.9-11.9,2.5-16.06
			c1.14-0.66,2.53-1,4.16-1c1.45,0,2.64,0.32,3.57,0.95c0.93,0.63,1.4,1.64,1.4,3.03c0,1.21-0.86,7.08-1.19,9.46
			c-0.33,2.38-0.75,5.09-1.27,8.14c-0.51,3.04-1.13,6.28-1.85,9.72c-0.72,3.44-1.48,6.81-2.26,10.13c-0.78,3.31-1.58,6.43-2.39,9.35
			c-0.81,2.92-1.58,5.38-2.31,7.37c-0.66,0.48-1.58,0.89-2.76,1.22c-1.17,0.33-2.46,0.5-3.84,0.5c-1.75,0-3.22-0.26-4.43-0.77
			c-1.21-0.51-1.96-1.22-2.26-2.12c-0.54-1.45-1.19-3.24-1.94-5.38s-1.54-4.46-2.35-6.96s-1.63-5.14-2.44-7.91s-1.61-5.54-2.4-8.32
			c-0.72,2.71-1.51,5.5-2.35,8.36c-0.85,2.86-1.67,5.62-2.49,8.27c-0.81,2.65-1.6,5.12-2.35,7.41s-1.43,4.22-2.03,5.79
			c-0.6,0.42-1.46,0.8-2.58,1.13c-1.12,0.33-2.37,0.5-3.75,0.5c-1.75,0-3.24-0.27-4.48-0.81c-1.24-0.54-2.03-1.23-2.4-2.08
			c-0.54-1.21-1.14-2.95-1.81-5.24c-0.66-2.29-1.37-4.9-2.12-7.82s-1.52-6.06-2.31-9.4c-0.78-3.34-1.52-6.69-2.21-10.03
			s-1.34-6.58-1.94-9.72c-0.6-3.13-1.66-10.04-2.02-12.58c0.54-0.54,1.28-1.04,2.22-1.49c0.93-0.45,1.94-0.68,3.03-0.68
			c2.83,0,4.52,1.42,5.06,4.25c0.78,4.28,2.11,12.34,2.83,16.01c0.72,3.68,1.42,7.22,2.08,10.62c0.66,3.41,1.33,6.77,1.99,10.08
			s1.39,6.72,2.17,10.21h0.36c0.78-2.65,1.52-5.14,2.21-7.46s1.42-4.73,2.17-7.23s1.56-5.21,2.44-8.14
			C272.16,48.91,273.14,45.52,274.23,41.66z"/>
		<path class="st1" d="M321.73,30.91c0-1.48,0.51-2.72,1.54-3.72s2.34-1.5,3.93-1.5s2.88,0.5,3.85,1.5s1.45,2.24,1.45,3.72
			s-0.48,2.72-1.45,3.72s-2.25,1.5-3.85,1.5s-2.91-0.5-3.93-1.5C322.24,33.63,321.73,32.4,321.73,30.91z M331.9,82.8
			c-0.42,0.18-1.01,0.35-1.76,0.5s-1.61,0.23-2.58,0.23c-1.75,0-3.04-0.33-3.89-1s-1.27-1.78-1.27-3.34V40.94
			c0.48-0.12,1.1-0.27,1.85-0.45s1.61-0.27,2.58-0.27c1.75,0,3.03,0.33,3.84,0.99s1.22,1.81,1.22,3.44V82.8H331.9z"/>
		<path class="st1" d="M363.81,39.4c1.81,0,3.51,0.2,5.11,0.59c1.6,0.39,3,0.89,4.2,1.49V25.94c0.42-0.12,1.03-0.27,1.81-0.45
			s1.63-0.27,2.53-0.27c1.75,0,3.04,0.33,3.89,1c0.84,0.66,1.27,1.78,1.27,3.34V75.3c0,1.27-0.27,2.31-0.81,3.12
			c-0.54,0.81-1.39,1.58-2.53,2.31c-1.39,0.9-3.27,1.72-5.65,2.44s-5.11,1.08-8.18,1.08c-3.44,0-6.57-0.44-9.4-1.31
			c-2.83-0.87-5.24-2.23-7.23-4.07c-1.99-1.84-3.53-4.16-4.61-6.96c-1.09-2.8-1.63-6.1-1.63-9.9c0-3.92,0.56-7.31,1.67-10.17
			c1.11-2.86,2.64-5.21,4.57-7.05s4.17-3.19,6.73-4.07C358.1,39.84,360.86,39.4,363.81,39.4z M373.21,49.44
			c-1.03-0.66-2.23-1.23-3.62-1.72c-1.39-0.48-2.92-0.72-4.61-0.72c-1.81,0-3.48,0.27-5.02,0.81c-1.54,0.54-2.88,1.43-4.02,2.67
			c-1.14,1.24-2.05,2.8-2.71,4.7s-1,4.2-1,6.92c0,5.06,1.19,8.74,3.57,11.03s5.56,3.43,9.54,3.43c1.81,0,3.33-0.19,4.56-0.59
			c1.24-0.39,2.34-0.86,3.3-1.4L373.21,49.44L373.21,49.44z"/>
		<path class="st1" d="M402.6,66.61c0.84,3.44,2.49,5.98,4.93,7.64c2.44,1.66,5.56,2.49,9.36,2.49c2.53,0,4.85-0.39,6.96-1.17
			s3.8-1.63,5.06-2.53c1.69,0.96,2.53,2.32,2.53,4.07c0,1.03-0.39,1.97-1.17,2.85c-0.78,0.87-1.85,1.63-3.21,2.26
			c-1.35,0.63-2.95,1.13-4.79,1.49s-3.81,0.54-5.92,0.54c-3.5,0-6.68-0.48-9.54-1.45c-2.86-0.96-5.32-2.41-7.37-4.34
			c-2.05-1.93-3.63-4.31-4.75-7.14s-1.67-6.12-1.67-9.85c0-3.62,0.54-6.79,1.63-9.54c1.08-2.74,2.56-5.03,4.43-6.87
			s4.07-3.24,6.6-4.2s5.24-1.45,8.14-1.45c2.89,0,5.53,0.47,7.91,1.4c2.38,0.94,4.43,2.23,6.15,3.89s3.04,3.63,3.98,5.92
			c0.93,2.29,1.4,4.79,1.4,7.5c0,1.51-0.36,2.61-1.08,3.3s-1.78,1.16-3.16,1.4L402.6,66.61z M413.81,46.73
			c-3.32,0-6.07,1.12-8.27,3.34c-2.2,2.23-3.36,5.42-3.48,9.58l22.24-3.16c-0.24-2.71-1.24-5.02-2.98-6.92
			C419.56,47.68,417.06,46.73,413.81,46.73z"/>
		<path class="st1" d="M442.91,40.76c0.42-0.12,1.02-0.26,1.81-0.41c0.78-0.15,1.63-0.23,2.53-0.23c1.75,0,3.03,0.33,3.84,0.99
			s1.22,1.81,1.22,3.44v22.33c0,3.49,0.92,5.98,2.76,7.46c1.84,1.48,4.38,2.21,7.64,2.21c2.11,0,3.89-0.21,5.33-0.63
			c1.45-0.42,2.59-0.87,3.44-1.36v-33.8c0.48-0.12,1.1-0.26,1.85-0.41s1.58-0.23,2.49-0.23c1.75,0,3.04,0.33,3.89,0.99
			c0.84,0.66,1.27,1.81,1.27,3.44v30.46c0,1.33-0.21,2.41-0.63,3.25c-0.42,0.85-1.27,1.66-2.53,2.44c-1.57,0.9-3.63,1.72-6.19,2.44
			s-5.56,1.08-8.99,1.08c-6.21,0-11.04-1.37-14.51-4.11s-5.2-7.1-5.2-13.06V40.76H442.91z"/>
		<path class="st1" d="M543.85,48.85c-1.48-1.23-3.48-1.85-6.01-1.85c-1.69,0-3.3,0.32-4.84,0.95s-2.94,1.49-4.2,2.58
			c0.12,0.48,0.21,1,0.27,1.54s0.09,1.08,0.09,1.63v29.1c-0.42,0.18-1.03,0.35-1.81,0.5c-0.78,0.15-1.6,0.23-2.44,0.23
			c-1.75,0-3.04-0.33-3.89-1c-0.85-0.66-1.27-1.78-1.27-3.34v-24.5c0-2.65-0.75-4.6-2.26-5.83c-1.51-1.23-3.52-1.85-6.06-1.85
			c-1.69,0-3.29,0.27-4.79,0.81c-1.51,0.54-2.77,1.15-3.8,1.81V82.8c-0.42,0.18-1.01,0.35-1.76,0.5s-1.58,0.23-2.49,0.23
			c-1.75,0-3.04-0.33-3.89-1c-0.85-0.66-1.27-1.78-1.27-3.34V49.35c0-1.39,0.27-2.5,0.81-3.34s1.45-1.69,2.71-2.53
			c1.75-1.14,3.95-2.11,6.6-2.89s5.33-1.17,8.05-1.17c2.83,0,5.38,0.39,7.64,1.17s4.11,1.93,5.56,3.44c1.69-1.33,3.69-2.43,6.01-3.3
			s5.02-1.31,8.09-1.31c2.35,0,4.55,0.29,6.6,0.86s3.81,1.48,5.29,2.71c1.48,1.24,2.64,2.79,3.48,4.66c0.84,1.87,1.27,4.1,1.27,6.69
			V82.8c-0.48,0.18-1.1,0.35-1.85,0.5s-1.58,0.23-2.49,0.23c-1.75,0-3.04-0.33-3.89-1c-0.85-0.66-1.27-1.78-1.27-3.34v-24.5
			C546.06,52.03,545.32,50.09,543.85,48.85z"/>
	</g>
	<path class="st0" d="M172.2,84.53"/>
	<path class="st0" d="M172.2,84.53"/>
</g>
<g>
	<path class="st2" d="M390.95,109.77h-8.77c-0.15,0.44-0.32,0.91-0.49,1.42c-0.17,0.51-0.34,1.01-0.51,1.51
		c-0.16,0.49-0.32,0.95-0.47,1.37c-0.15,0.43-0.27,0.78-0.36,1.06c-0.31,0.13-0.67,0.2-1.08,0.2c-0.35,0-0.66-0.09-0.93-0.28
		c-0.27-0.19-0.41-0.49-0.41-0.9c0-0.2,0.03-0.4,0.1-0.61c0.07-0.21,0.14-0.43,0.23-0.67c0.33-0.92,0.75-2.09,1.26-3.53
		c0.51-1.44,1.07-2.97,1.67-4.6c0.6-1.63,1.21-3.26,1.83-4.91c0.62-1.65,1.19-3.13,1.72-4.43c0.17-0.09,0.44-0.17,0.79-0.26
		c0.35-0.09,0.71-0.13,1.08-0.13c0.44,0,0.86,0.07,1.26,0.2c0.4,0.13,0.66,0.35,0.77,0.65c0.52,1.27,1.08,2.71,1.69,4.34
		c0.6,1.63,1.2,3.29,1.82,4.99c0.61,1.7,1.19,3.38,1.75,5.02c0.56,1.65,1.05,3.14,1.49,4.47c-0.17,0.2-0.38,0.36-0.62,0.47
		c-0.24,0.12-0.51,0.18-0.82,0.18c-0.41,0-0.73-0.09-0.95-0.28c-0.22-0.19-0.4-0.5-0.56-0.93L390.95,109.77z M386.56,97.24
		c-0.24,0.65-0.51,1.4-0.82,2.24c-0.31,0.84-0.62,1.72-0.95,2.63s-0.65,1.84-0.98,2.78s-0.63,1.83-0.92,2.68h7.36
		c-0.33-0.98-0.67-1.97-1.01-2.96c-0.35-0.99-0.68-1.95-1-2.86c-0.32-0.92-0.61-1.76-0.88-2.54c-0.27-0.77-0.5-1.43-0.67-1.98
		H386.56z"/>
	<path class="st2" d="M401.16,115.16c-0.22,0.05-0.46,0.08-0.72,0.08c-0.94,0-1.41-0.39-1.41-1.18V93.86
		c0.11-0.04,0.28-0.09,0.51-0.15s0.46-0.08,0.7-0.08c0.94,0,1.41,0.39,1.41,1.18v20.19C401.54,115.05,401.38,115.1,401.16,115.16z"
		/>
	<path class="st2" d="M416.35,103.82c-0.31,1.03-0.62,2.06-0.93,3.11c-0.32,1.05-0.64,2.05-0.96,3.01
		c-0.33,0.96-0.64,1.87-0.95,2.72s-0.59,1.6-0.85,2.26c-0.18,0.11-0.37,0.2-0.59,0.26c-0.22,0.07-0.51,0.1-0.88,0.1
		c-0.35,0-0.67-0.06-0.97-0.18c-0.29-0.12-0.5-0.31-0.61-0.57c-0.26-0.55-0.57-1.4-0.93-2.55c-0.36-1.16-0.73-2.43-1.11-3.81
		c-0.38-1.39-0.74-2.78-1.08-4.19c-0.34-1.41-0.62-2.63-0.84-3.68c0.15-0.15,0.34-0.3,0.57-0.43c0.23-0.13,0.51-0.2,0.84-0.2
		c0.41,0,0.72,0.11,0.92,0.34c0.2,0.23,0.35,0.59,0.46,1.1c0.2,0.92,0.43,1.96,0.69,3.13c0.26,1.17,0.52,2.31,0.79,3.42
		c0.26,1.11,0.51,2.13,0.74,3.04s0.4,1.59,0.51,2.03h0.13c0.13-0.39,0.32-0.98,0.57-1.77c0.25-0.79,0.54-1.69,0.87-2.7
		c0.33-1.01,0.69-2.11,1.08-3.29c0.39-1.18,0.79-2.36,1.18-3.54c0.39-0.22,0.86-0.33,1.41-0.33c0.81,0,1.31,0.28,1.51,0.85
		c0.39,1.13,0.77,2.26,1.13,3.39c0.36,1.12,0.69,2.17,1,3.13c0.31,0.96,0.57,1.82,0.79,2.57c0.22,0.75,0.39,1.33,0.52,1.72h0.16
		c0.5-1.96,1.05-4.05,1.64-6.25c0.59-2.2,1.07-4.39,1.44-6.55c0.31-0.2,0.68-0.29,1.11-0.29c0.37,0,0.67,0.09,0.88,0.26
		c0.22,0.18,0.33,0.45,0.33,0.82c0,0.24-0.07,0.7-0.21,1.39c-0.14,0.69-0.33,1.48-0.57,2.39c-0.24,0.91-0.51,1.88-0.8,2.91
		c-0.29,1.04-0.6,2.04-0.9,3.01s-0.59,1.85-0.87,2.65s-0.51,1.4-0.7,1.82c-0.11,0.09-0.29,0.17-0.54,0.25
		c-0.25,0.08-0.54,0.11-0.87,0.11c-0.42,0-0.76-0.05-1.03-0.15c-0.27-0.1-0.45-0.26-0.54-0.47c-0.24-0.59-0.5-1.29-0.77-2.1
		c-0.27-0.81-0.56-1.69-0.87-2.63c-0.31-0.95-0.62-1.95-0.93-2.99C416.96,105.88,416.65,104.84,416.35,103.82z"/>
	<path class="st2" d="M435.72,99.53c1.9,0,3.4,0.43,4.52,1.28c1.11,0.85,1.67,2.19,1.67,4.02v7.76c0,0.48-0.09,0.85-0.28,1.1
		c-0.19,0.25-0.46,0.49-0.83,0.7c-0.52,0.31-1.22,0.57-2.08,0.8c-0.86,0.23-1.85,0.34-2.96,0.34c-2.05,0-3.64-0.4-4.76-1.21
		c-1.12-0.81-1.69-1.97-1.69-3.5c0-1.44,0.47-2.52,1.41-3.26c0.94-0.73,2.26-1.18,3.96-1.36l4.65-0.46v-0.92
		c0-1.09-0.33-1.89-0.98-2.39c-0.65-0.5-1.54-0.75-2.65-0.75c-0.92,0-1.78,0.13-2.59,0.39c-0.81,0.26-1.53,0.56-2.16,0.88
		c-0.18-0.15-0.33-0.33-0.47-0.52c-0.14-0.2-0.21-0.41-0.21-0.65c0-0.31,0.08-0.56,0.23-0.75c0.15-0.2,0.39-0.38,0.72-0.56
		c0.59-0.31,1.27-0.54,2.03-0.7C434,99.61,434.83,99.53,435.72,99.53z M435.75,113.37c0.92,0,1.67-0.09,2.28-0.28
		c0.6-0.19,1.03-0.37,1.29-0.54v-4.75l-4.06,0.43c-1.13,0.11-1.98,0.37-2.52,0.77c-0.55,0.4-0.82,1-0.82,1.78
		c0,0.83,0.32,1.47,0.95,1.91C433.51,113.15,434.47,113.37,435.75,113.37z"/>
	<path class="st2" d="M449.37,111.7c-0.28-0.52-0.61-1.19-0.98-2c-0.37-0.81-0.76-1.71-1.16-2.72c-0.4-1-0.81-2.07-1.23-3.19
		c-0.41-1.12-0.81-2.26-1.18-3.42c0.15-0.22,0.35-0.39,0.61-0.52c0.25-0.13,0.52-0.2,0.8-0.2c0.37,0,0.67,0.1,0.9,0.29
		c0.23,0.2,0.43,0.52,0.61,0.98c0.65,1.85,1.34,3.68,2.05,5.47c0.71,1.79,1.51,3.67,2.41,5.63h0.13c0.35-0.68,0.71-1.5,1.08-2.47
		c0.37-0.97,0.74-2,1.1-3.09c0.36-1.09,0.7-2.2,1.01-3.32c0.32-1.12,0.59-2.2,0.84-3.22c0.15-0.07,0.32-0.13,0.49-0.18
		c0.17-0.05,0.38-0.08,0.62-0.08c0.37,0,0.68,0.09,0.92,0.28c0.24,0.19,0.36,0.46,0.36,0.83c0,0.44-0.15,1.23-0.46,2.39
		c-0.31,1.16-0.7,2.46-1.19,3.9c-0.49,1.44-1.05,2.92-1.69,4.43c-0.63,1.52-1.28,2.86-1.93,4.04c-1.03,1.85-1.95,3.28-2.77,4.27
		c-0.82,0.99-1.58,1.49-2.28,1.49c-0.5,0-0.89-0.13-1.16-0.39c-0.27-0.26-0.44-0.57-0.51-0.92c0.35-0.31,0.74-0.7,1.18-1.18
		c0.44-0.48,0.87-1,1.31-1.55c0.44-0.56,0.85-1.13,1.24-1.72c0.39-0.59,0.72-1.16,0.98-1.7c-0.37-0.11-0.72-0.3-1.03-0.57
		C450.12,112.98,449.76,112.47,449.37,111.7z"/>
	<path class="st2" d="M472.97,111.05c0,1.4-0.51,2.49-1.54,3.27c-1.03,0.79-2.51,1.18-4.45,1.18c-0.83,0-1.59-0.07-2.29-0.21
		c-0.7-0.14-1.29-0.33-1.78-0.56c-0.49-0.23-0.87-0.49-1.15-0.79c-0.27-0.29-0.41-0.59-0.41-0.9c0-0.26,0.07-0.51,0.21-0.75
		c0.14-0.24,0.35-0.45,0.64-0.62c0.59,0.44,1.28,0.82,2.06,1.16c0.78,0.34,1.68,0.51,2.68,0.51c2.27,0,3.4-0.76,3.4-2.29
		c0-1.24-0.75-2.05-2.26-2.42l-2.72-0.72c-1.33-0.35-2.3-0.86-2.91-1.52c-0.61-0.67-0.92-1.52-0.92-2.57c0-0.57,0.11-1.11,0.34-1.64
		c0.23-0.52,0.58-0.98,1.06-1.37c0.48-0.39,1.07-0.7,1.78-0.93c0.71-0.23,1.54-0.34,2.5-0.34c1.53,0,2.76,0.22,3.7,0.67
		c0.94,0.45,1.41,0.97,1.41,1.55c0,0.28-0.07,0.54-0.21,0.75c-0.14,0.22-0.33,0.38-0.57,0.49c-0.39-0.26-0.95-0.55-1.67-0.85
		c-0.72-0.31-1.57-0.46-2.55-0.46s-1.76,0.19-2.34,0.56c-0.58,0.37-0.87,0.89-0.87,1.57c0,0.5,0.16,0.93,0.49,1.28
		c0.33,0.35,0.87,0.61,1.64,0.79l2.26,0.56c1.48,0.37,2.6,0.92,3.34,1.65C472.6,108.82,472.97,109.8,472.97,111.05z"/>
	<path class="st2" d="M488.64,115.5c-1.53,0-2.77-0.34-3.71-1.01c-0.95-0.68-1.42-1.8-1.42-3.37V95.57
		c0.11-0.04,0.28-0.09,0.51-0.15c0.23-0.05,0.47-0.08,0.74-0.08c0.92,0,1.37,0.39,1.37,1.18v3.76h5.37c0.07,0.11,0.13,0.26,0.2,0.44
		c0.07,0.19,0.1,0.39,0.1,0.61c0,0.74-0.33,1.11-0.98,1.11h-4.68v8.51c0,0.87,0.25,1.49,0.74,1.85c0.49,0.36,1.18,0.54,2.08,0.54
		c0.37,0,0.79-0.07,1.24-0.2c0.46-0.13,0.84-0.28,1.15-0.46c0.13,0.13,0.25,0.29,0.36,0.49c0.11,0.2,0.16,0.43,0.16,0.69
		c0,0.48-0.28,0.87-0.85,1.18C490.43,115.35,489.65,115.5,488.64,115.5z"/>
	<path class="st2" d="M497.84,115.16c-0.22,0.05-0.46,0.08-0.72,0.08c-0.94,0-1.41-0.39-1.41-1.18V93.86
		c0.11-0.04,0.28-0.09,0.51-0.15c0.23-0.05,0.48-0.08,0.74-0.08c0.92,0,1.37,0.39,1.37,1.18v5.89c0.52-0.31,1.14-0.58,1.85-0.82
		s1.51-0.36,2.41-0.36c0.92,0,1.75,0.12,2.5,0.36s1.4,0.61,1.95,1.1c0.55,0.49,0.97,1.11,1.28,1.87c0.31,0.75,0.46,1.63,0.46,2.63
		v9.52c-0.11,0.04-0.28,0.09-0.51,0.15c-0.23,0.05-0.46,0.08-0.7,0.08c-0.94,0-1.41-0.39-1.41-1.18v-8.51
		c0-1.31-0.36-2.28-1.08-2.91c-0.72-0.63-1.67-0.95-2.85-0.95c-0.76,0-1.48,0.14-2.14,0.41c-0.67,0.27-1.25,0.61-1.75,1v11.91
		C498.22,115.05,498.06,115.1,497.84,115.16z"/>
	<path class="st2" d="M515.55,109.05c0.59,2.86,2.46,4.29,5.63,4.29c0.92,0,1.75-0.15,2.49-0.46c0.74-0.31,1.33-0.63,1.77-0.98
		c0.52,0.31,0.79,0.72,0.79,1.24c0,0.31-0.14,0.6-0.41,0.88c-0.27,0.28-0.64,0.53-1.11,0.75c-0.47,0.22-1.01,0.39-1.64,0.52
		c-0.62,0.13-1.29,0.2-2.01,0.2c-2.53,0-4.53-0.69-6.01-2.06c-1.47-1.37-2.21-3.38-2.21-6.02c0-1.24,0.18-2.35,0.54-3.32
		s0.86-1.79,1.51-2.47c0.64-0.68,1.41-1.19,2.31-1.55s1.87-0.54,2.91-0.54c0.98,0,1.89,0.16,2.72,0.49
		c0.83,0.33,1.54,0.79,2.14,1.39c0.6,0.6,1.07,1.31,1.41,2.13c0.34,0.82,0.51,1.72,0.51,2.7c0,0.48-0.11,0.82-0.33,1.03
		c-0.22,0.21-0.52,0.33-0.92,0.38L515.55,109.05z M520.06,101.65c-1.33,0-2.43,0.46-3.31,1.39c-0.87,0.93-1.33,2.25-1.37,3.98
		l9-1.24c-0.11-1.2-0.53-2.19-1.26-2.96C522.39,102.04,521.37,101.65,520.06,101.65z"/>
	<path class="st2" d="M533.28,115.01c-0.11,0.04-0.27,0.09-0.49,0.15c-0.22,0.05-0.46,0.08-0.72,0.08c-0.94,0-1.41-0.39-1.41-1.18
		v-11.09c0-0.5,0.09-0.9,0.28-1.19c0.19-0.29,0.5-0.58,0.93-0.87c0.57-0.37,1.34-0.69,2.31-0.96c0.97-0.27,2.07-0.41,3.29-0.41
		c1.75,0,2.62,0.44,2.62,1.31c0,0.22-0.03,0.42-0.1,0.61c-0.07,0.19-0.15,0.34-0.26,0.47c-0.22-0.04-0.5-0.09-0.85-0.13
		c-0.35-0.04-0.7-0.07-1.05-0.07c-1,0-1.89,0.1-2.65,0.31c-0.76,0.21-1.4,0.45-1.9,0.74V115.01z"/>
	<path class="st2" d="M544.71,109.05c0.59,2.86,2.46,4.29,5.63,4.29c0.92,0,1.75-0.15,2.49-0.46c0.74-0.31,1.33-0.63,1.77-0.98
		c0.52,0.31,0.79,0.72,0.79,1.24c0,0.31-0.14,0.6-0.41,0.88c-0.27,0.28-0.64,0.53-1.11,0.75s-1.01,0.39-1.64,0.52
		c-0.62,0.13-1.29,0.2-2.01,0.2c-2.53,0-4.53-0.69-6.01-2.06c-1.47-1.37-2.21-3.38-2.21-6.02c0-1.24,0.18-2.35,0.54-3.32
		s0.86-1.79,1.51-2.47c0.64-0.68,1.41-1.19,2.31-1.55s1.87-0.54,2.91-0.54c0.98,0,1.89,0.16,2.72,0.49
		c0.83,0.33,1.54,0.79,2.14,1.39c0.6,0.6,1.07,1.31,1.41,2.13c0.34,0.82,0.51,1.72,0.51,2.7c0,0.48-0.11,0.82-0.33,1.03
		c-0.22,0.21-0.52,0.33-0.92,0.38L544.71,109.05z M549.22,101.65c-1.33,0-2.43,0.46-3.31,1.39c-0.87,0.93-1.33,2.25-1.37,3.98
		l9-1.24c-0.11-1.2-0.53-2.19-1.26-2.96C551.55,102.04,550.53,101.65,549.22,101.65z"/>
</g>
<linearGradient id="SVGID_00000125584550270275105800000013375633486759659682_" gradientUnits="userSpaceOnUse" x1="170.9112" y1="2588.2134" x2="86.4631" y2="2478.1919" gradientTransform="matrix(1 0 0 1 0 -2454.5759)">
	<stop  offset="0" style="stop-color:#D9D723"/>
	<stop  offset="0.0739" style="stop-color:#B6CC52"/>
	<stop  offset="0.4525" style="stop-color:#79C09E"/>
	<stop  offset="0.714" style="stop-color:#64BEBA"/>
	<stop  offset="0.8456" style="stop-color:#64BEBA"/>
	<stop  offset="1" style="stop-color:#54BCC2"/>
</linearGradient>
<path id="SVGID" style="fill:url(#SVGID_00000125584550270275105800000013375633486759659682_);" d="M217.28,94.95
	c-0.7-1.91-2.51-7.32-5.02-14.45l0,0c-8.03-23.18-22.47-64.61-22.47-64.61l0,0c-1.61-4.51-6.02-7.83-11.14-7.83
	s-9.53,3.31-11.14,7.93l0,0c0,0-13.84,40.53-15.35,45.05c-7.52-21.57-15.75-45.15-15.75-45.15l0,0c-1.61-4.51-6.02-7.83-11.14-7.83
	s-9.53,3.31-11.14,7.93l0,0c0,0-11.77,35.15-14.78,43.98C92.04,38.91,83.6,16.07,83.6,16.07l0,0c-1.71-4.51-5.51-7.35-10.54-7.62
	c-5.12,0-9.38,3.24-11.09,7.52l0,0c0,0-14.41,42.14-15.51,45.55c-2.11-6.12-11.65-34.48-11.65-34.48l-4.64-13.95
	c-1.52-4.11-5.81-6.33-10.12-4.92l-6.14,2.03C9.09,11.8,6.49,16.5,8.1,21.21l4.61,13.24l0,0c7.73,22.07,22.57,64.91,22.57,64.91l0,0
	c1.71,4.51,6.03,7.65,11.15,7.56c3.87-0.06,9.12-3.15,10.72-7.77l0,0c0,0,13.91-39.94,15.61-44.96
	c7.52,21.47,15.79,45.16,15.79,45.16l0,0c1.71,4.51,6.06,7.67,11.18,7.67c5.12,0,8.92-3.22,10.79-7.77l0,0
	c0,0,12.35-35.21,15.16-43.64c7.32,21.17,15.25,43.74,15.25,43.74l0,0c1.61,4.51,6.02,7.83,11.14,7.83s9.53-3.31,11.14-7.93l0,0
	c0,0,14.65-43.44,15.35-45.65l11.34,34.31l4.31,14.05c1.4,4.41,6.22,6.72,10.63,5.32l6.22-2.01
	C215.47,103.68,218.28,99.36,217.28,94.95L217.28,94.95L217.28,94.95z"/>
<g>
	<defs>
		<path id="SVGID_1_" d="M140.79,99.25L140.79,99.25c1.61,4.51,6.02,7.83,11.14,7.83c5.12,0,9.53-3.31,11.14-7.93l0,0
			c0,0,14.65-43.44,15.35-45.65l11.34,34.31l4.31,14.05c1.4,4.41,6.22,6.72,10.63,5.32l6.22-2.01c4.41-1.61,7.22-5.92,6.22-10.33
			l0,0c-0.7-1.91-2.51-7.32-5.02-14.45l0,0c-8.03-23.18-22.47-64.61-22.47-64.61l0,0c-1.61-4.51-6.02-7.83-11.14-7.83
			c-5.12,0-9.53,3.31-11.14,7.93l0,0c0,0-13.84,40.53-15.35,45.05c-7.52-21.57-15.75-45.15-15.75-45.15l0,0
			c-1.61-4.51-6.02-7.83-11.14-7.83c-5.12,0-9.53,3.31-11.14,7.93l0,0c0,0-11.64,35.01-14.65,43.84
			c-7.32-21.07-15.35-43.94-15.35-43.94l0,0c-1.71-4.51-6.02-7.83-11.14-7.83c-5.12,0-9.53,3.31-11.14,7.83l0,0
			c0,0-14.25,41.84-15.35,45.25c-2.11-6.12-11.34-34.21-11.34-34.21l-4.61-13.95c-1.5-4.41-6.22-6.72-10.53-5.32l-6.22,2.01
			c-4.82,1.61-7.32,6.82-5.72,11.54l4.61,13.24l0,0c7.73,22.07,22.57,64.91,22.57,64.91l0,0c1.71,4.51,6.02,7.83,11.14,7.83
			s9.53-3.31,11.14-7.93l0,0c0,0,13.64-39.93,15.35-44.95c7.52,21.47,15.65,45.05,15.65,45.05l0,0c1.71,4.51,6.02,7.83,11.14,7.83
			s9.53-3.31,11.14-7.93l0,0"/>
	</defs>
	<clipPath id="SVGID_00000030453079891230056660000006624241186468414648_">
		<use xlink:href="#SVGID_1_"  style="overflow:visible;"/>
	</clipPath>
	<g style="clip-path:url(#SVGID_00000030453079891230056660000006624241186468414648_);">
		
			<linearGradient id="SVGID_00000003792948011793601810000011042831895862055050_" gradientUnits="userSpaceOnUse" x1="7.5537" y1="64.5131" x2="125.6793" y2="64.5131" gradientTransform="matrix(1 0 0 -1 0 122.1102)">
			<stop  offset="0.0599" style="stop-color:#4F3E8D"/>
			<stop  offset="1" style="stop-color:#7892C7"/>
		</linearGradient>
		<path style="fill:url(#SVGID_00000003792948011793601810000011042831895862055050_);" d="M113.59,17.63
			c0,0-11.23,33.52-14.23,42.35c-7.32-21.07-15.28-43.71-15.28-43.71c-1.71-4.51-6.02-7.83-11.14-7.83c-5.12,0-9.53,3.31-11.14,7.83
			c0,0-14.25,41.84-15.35,45.25C44.36,55.39,35.13,27.3,35.13,27.3l-4.61-13.95c-1.5-4.41-6.22-6.72-10.53-5.32l-6.22,2.01
			c-4.82,1.61-7.32,6.82-5.72,11.54l4.61,13.24c7.73,22.07,22.57,64.91,22.57,64.91c1.71,4.51,6.02,7.83,11.14,7.83
			s9.53-3.31,11.14-7.93c0,0,13.64-39.93,15.35-44.95C80.37,76.16,88.5,99.74,88.5,99.74c1.71,4.51,6.02,7.83,11.14,7.83
			s9.18-3.82,10.93-8.07c0,0,12.3-35.45,15.11-43.88"/>
		
			<linearGradient id="SVGID_00000114779470929006246360000004664252643348648890_" gradientUnits="userSpaceOnUse" x1="7.5537" y1="64.5131" x2="125.6793" y2="64.5131" gradientTransform="matrix(1 0 0 -1 0 122.1102)">
			<stop  offset="0.0599" style="stop-color:#4F3E8D"/>
			<stop  offset="1" style="stop-color:#7892C7"/>
		</linearGradient>
		<path style="fill:url(#SVGID_00000114779470929006246360000004664252643348648890_);" d="M113.59,17.63
			c0,0-11.23,33.52-14.23,42.35c-7.32-21.07-15.28-43.71-15.28-43.71c-1.71-4.51-6.02-7.83-11.14-7.83c-5.12,0-9.53,3.31-11.14,7.83
			c0,0-14.25,41.84-15.35,45.25C44.36,55.39,35.13,27.3,35.13,27.3l-4.61-13.95c-1.5-4.41-6.22-6.72-10.53-5.32l-6.22,2.01
			c-4.82,1.61-7.32,6.82-5.72,11.54l4.61,13.24c7.73,22.07,22.57,64.91,22.57,64.91c1.71,4.51,6.02,7.83,11.14,7.83
			s9.53-3.31,11.14-7.93c0,0,13.64-39.93,15.35-44.95C80.37,76.16,88.5,99.74,88.5,99.74c1.71,4.51,6.02,7.83,11.14,7.83
			s9.18-3.82,10.93-8.07c0,0,12.3-35.45,15.11-43.88"/>
		
			<linearGradient id="SVGID_00000021079020662053011040000005607011773417915805_" gradientUnits="userSpaceOnUse" x1="7.5537" y1="64.5131" x2="125.6793" y2="64.5131" gradientTransform="matrix(1 0 0 -1 0 122.1102)">
			<stop  offset="0.0599" style="stop-color:#4F3E8D"/>
			<stop  offset="1" style="stop-color:#7892C7"/>
		</linearGradient>
		<path style="fill:url(#SVGID_00000021079020662053011040000005607011773417915805_);" d="M113.59,17.63
			c0,0-11.23,33.52-14.23,42.35c-7.32-21.07-15.28-43.71-15.28-43.71c-1.71-4.51-6.02-7.83-11.14-7.83c-5.12,0-9.53,3.31-11.14,7.83
			c0,0-14.25,41.84-15.35,45.25C44.36,55.39,35.13,27.3,35.13,27.3l-4.61-13.95c-1.5-4.41-6.22-6.72-10.53-5.32l-6.22,2.01
			c-4.82,1.61-7.32,6.82-5.72,11.54l4.61,13.24c7.73,22.07,22.57,64.91,22.57,64.91c1.71,4.51,6.02,7.83,11.14,7.83
			s9.53-3.31,11.14-7.93c0,0,13.64-39.93,15.35-44.95C80.37,76.16,88.5,99.74,88.5,99.74c1.71,4.51,6.02,7.83,11.14,7.83
			s9.18-3.82,10.93-8.07c0,0,12.3-35.45,15.11-43.88"/>
		
			<linearGradient id="SVGID_00000131361637938479675020000001549760555960125341_" gradientUnits="userSpaceOnUse" x1="7.5537" y1="64.5131" x2="125.6793" y2="64.5131" gradientTransform="matrix(1 0 0 -1 0 122.1102)">
			<stop  offset="0.0599" style="stop-color:#4F3E8D"/>
			<stop  offset="1" style="stop-color:#7892C7"/>
		</linearGradient>
		<path style="fill:url(#SVGID_00000131361637938479675020000001549760555960125341_);" d="M113.59,17.63
			c0,0-11.23,33.52-14.23,42.35c-7.32-21.07-15.28-43.71-15.28-43.71c-1.71-4.51-6.02-7.83-11.14-7.83c-5.12,0-9.53,3.31-11.14,7.83
			c0,0-14.25,41.84-15.35,45.25C44.36,55.39,35.13,27.3,35.13,27.3l-4.61-13.95c-1.5-4.41-6.22-6.72-10.53-5.32l-6.22,2.01
			c-4.82,1.61-7.32,6.82-5.72,11.54l4.61,13.24c7.73,22.07,22.57,64.91,22.57,64.91c1.71,4.51,6.02,7.83,11.14,7.83
			s9.53-3.31,11.14-7.93c0,0,13.64-39.93,15.35-44.95C80.37,76.16,88.5,99.74,88.5,99.74c1.71,4.51,6.02,7.83,11.14,7.83
			s9.18-3.82,10.93-8.07c0,0,12.3-35.45,15.11-43.88"/>
		
			<linearGradient id="SVGID_00000093877160181665221030000011001718467846506123_" gradientUnits="userSpaceOnUse" x1="7.5537" y1="64.5131" x2="125.6793" y2="64.5131" gradientTransform="matrix(1 0 0 -1 0 122.1102)">
			<stop  offset="0.0599" style="stop-color:#4F3E8D"/>
			<stop  offset="1" style="stop-color:#7892C7"/>
		</linearGradient>
		<path style="fill:url(#SVGID_00000093877160181665221030000011001718467846506123_);" d="M113.59,17.63
			c0,0-11.23,33.52-14.23,42.35c-7.32-21.07-15.28-43.71-15.28-43.71c-1.71-4.51-6.02-7.83-11.14-7.83c-5.12,0-9.53,3.31-11.14,7.83
			c0,0-14.25,41.84-15.35,45.25C44.36,55.39,35.13,27.3,35.13,27.3l-4.61-13.95c-1.5-4.41-6.22-6.72-10.53-5.32l-6.22,2.01
			c-4.82,1.61-7.32,6.82-5.72,11.54l4.61,13.24c7.73,22.07,22.57,64.91,22.57,64.91c1.71,4.51,6.02,7.83,11.14,7.83
			s9.53-3.31,11.14-7.93c0,0,13.64-39.93,15.35-44.95C80.37,76.16,88.5,99.74,88.5,99.74c1.71,4.51,6.02,7.83,11.14,7.83
			s9.18-3.82,10.93-8.07c0,0,12.3-35.45,15.11-43.88"/>
		
			<linearGradient id="SVGID_00000123416466886510437620000009025675596463121329_" gradientUnits="userSpaceOnUse" x1="7.5537" y1="64.5131" x2="125.6793" y2="64.5131" gradientTransform="matrix(1 0 0 -1 0 122.1102)">
			<stop  offset="0.0599" style="stop-color:#4F3E8D"/>
			<stop  offset="1" style="stop-color:#7892C7"/>
		</linearGradient>
		<path style="fill:url(#SVGID_00000123416466886510437620000009025675596463121329_);" d="M113.59,17.63
			c0,0-11.23,33.52-14.23,42.35c-7.32-21.07-15.28-43.71-15.28-43.71c-1.71-4.51-6.02-7.83-11.14-7.83c-5.12,0-9.53,3.31-11.14,7.83
			c0,0-14.25,41.84-15.35,45.25C44.36,55.39,35.13,27.3,35.13,27.3l-4.61-13.95c-1.5-4.41-6.22-6.72-10.53-5.32l-6.22,2.01
			c-4.82,1.61-7.32,6.82-5.72,11.54l4.61,13.24c7.73,22.07,22.57,64.91,22.57,64.91c1.71,4.51,6.02,7.83,11.14,7.83
			s9.53-3.31,11.14-7.93c0,0,13.64-39.93,15.35-44.95C80.37,76.16,88.5,99.74,88.5,99.74c1.71,4.51,6.02,7.83,11.14,7.83
			s9.18-3.82,10.93-8.07c0,0,12.3-35.45,15.11-43.88"/>
		
			<linearGradient id="SVGID_00000122721907300453384380000004527541576481503879_" gradientUnits="userSpaceOnUse" x1="7.5537" y1="64.5131" x2="125.6793" y2="64.5131" gradientTransform="matrix(1 0 0 -1 0 122.1102)">
			<stop  offset="0.0599" style="stop-color:#4F3E8D"/>
			<stop  offset="1" style="stop-color:#7892C7"/>
		</linearGradient>
		<path style="fill:url(#SVGID_00000122721907300453384380000004527541576481503879_);" d="M113.59,17.63
			c0,0-11.23,33.52-14.23,42.35c-7.32-21.07-15.28-43.71-15.28-43.71c-1.71-4.51-6.02-7.83-11.14-7.83c-5.12,0-9.53,3.31-11.14,7.83
			c0,0-14.25,41.84-15.35,45.25C44.36,55.39,35.13,27.3,35.13,27.3l-4.61-13.95c-1.5-4.41-6.22-6.72-10.53-5.32l-6.22,2.01
			c-4.82,1.61-7.32,6.82-5.72,11.54l4.61,13.24c7.73,22.07,22.57,64.91,22.57,64.91c1.71,4.51,6.02,7.83,11.14,7.83
			s9.53-3.31,11.14-7.93c0,0,13.64-39.93,15.35-44.95C80.37,76.16,88.5,99.74,88.5,99.74c1.71,4.51,6.02,7.83,11.14,7.83
			s9.18-3.82,10.93-8.07c0,0,12.3-35.45,15.11-43.88"/>
		
			<linearGradient id="SVGID_00000011744957574468067580000004212387907111451575_" gradientUnits="userSpaceOnUse" x1="7.5537" y1="64.5131" x2="125.6793" y2="64.5131" gradientTransform="matrix(1 0 0 -1 0 122.1102)">
			<stop  offset="0.0599" style="stop-color:#4F3E8D"/>
			<stop  offset="1" style="stop-color:#7892C7"/>
		</linearGradient>
		<path style="fill:url(#SVGID_00000011744957574468067580000004212387907111451575_);" d="M113.59,17.63
			c0,0-11.23,33.52-14.23,42.35c-7.32-21.07-15.28-43.71-15.28-43.71c-1.71-4.51-6.02-7.83-11.14-7.83c-5.12,0-9.53,3.31-11.14,7.83
			c0,0-14.25,41.84-15.35,45.25C44.36,55.39,35.13,27.3,35.13,27.3l-4.61-13.95c-1.5-4.41-6.22-6.72-10.53-5.32l-6.22,2.01
			c-4.82,1.61-7.32,6.82-5.72,11.54l4.61,13.24c7.73,22.07,22.57,64.91,22.57,64.91c1.71,4.51,6.02,7.83,11.14,7.83
			s9.53-3.31,11.14-7.93c0,0,13.64-39.93,15.35-44.95C80.37,76.16,88.5,99.74,88.5,99.74c1.71,4.51,6.02,7.83,11.14,7.83
			s9.18-3.82,10.93-8.07c0,0,12.3-35.45,15.11-43.88"/>
		
			<linearGradient id="SVGID_00000106111526000144554010000014573805289820789946_" gradientUnits="userSpaceOnUse" x1="41.0169" y1="2546.1721" x2="63.8688" y2="2506.231" gradientTransform="matrix(1 0 0 1 0 -2454.5759)">
			<stop  offset="0" style="stop-color:#282657"/>
			<stop  offset="0.677" style="stop-color:#0E0C19;stop-opacity:0.3218"/>
			<stop  offset="0.9982" style="stop-color:#010101;stop-opacity:0"/>
		</linearGradient>
		<polygon style="fill:url(#SVGID_00000106111526000144554010000014573805289820789946_);" points="46.46,61.51 57.93,98.14 
			72.97,53.7 59.39,23.38 		"/>
	</g>
</g>
<g>
	<defs>
		<path id="SVGID_00000110453595128697583200000017631797989456121493_" d="M140.79,99.25L140.79,99.25
			c1.61,4.51,6.02,7.83,11.14,7.83c5.12,0,9.53-3.31,11.14-7.93l0,0c0,0,14.65-43.44,15.35-45.65l11.34,34.31l4.31,14.05
			c1.4,4.41,6.22,6.72,10.63,5.32l6.22-2.01c4.41-1.61,7.22-5.92,6.22-10.33l0,0c-0.7-1.91-2.51-7.32-5.02-14.45l0,0
			c-8.03-23.18-22.47-64.61-22.47-64.61l0,0c-1.61-4.51-6.02-7.83-11.14-7.83c-5.12,0-9.53,3.31-11.14,7.93l0,0
			c0,0-13.84,40.53-15.35,45.05c-7.52-21.57-15.75-45.15-15.75-45.15l0,0c-1.61-4.51-6.02-7.83-11.14-7.83
			c-5.12,0-9.53,3.31-11.14,7.93l0,0c0,0-11.64,35.01-14.65,43.84c-7.32-21.07-15.5-43.88-15.5-43.88l0,0
			c-1.71-4.51-5.87-7.63-10.99-7.63c-5.12,0-9.53,3.06-11.14,7.57l0,0c0,0-14.25,41.84-15.35,45.25
			c-2.11-6.12-11.34-34.21-11.34-34.21l-4.61-13.95c-1.5-4.41-6.22-6.72-10.53-5.32l-6.22,2.01c-4.82,1.61-7.32,6.82-5.72,11.54
			l4.61,13.24l0,0c7.73,22.07,22.57,64.91,22.57,64.91l0,0c1.71,4.51,6.02,7.83,11.14,7.83s9.53-3.31,11.14-7.93l0,0
			c0,0,13.64-39.93,15.35-44.95c7.52,21.47,15.65,45.05,15.65,45.05l0,0c1.71,4.51,6.02,7.83,11.14,7.83s9.53-3.31,11.14-7.93l0,0
			c0,0,12.04-35.21,14.85-43.64"/>
	</defs>
	<clipPath id="SVGID_00000132784562732711363820000014990062246476288916_">
		<use xlink:href="#SVGID_00000110453595128697583200000017631797989456121493_"  style="overflow:visible;"/>
	</clipPath>
	<g style="clip-path:url(#SVGID_00000132784562732711363820000014990062246476288916_);">
		
			<linearGradient id="SVGID_00000149353750678605469120000013583443096786909368_" gradientUnits="userSpaceOnUse" x1="46.075" y1="-1141.8999" x2="69.0679" y2="-1182.0878" gradientTransform="matrix(-1 0 0 -1 230.1582 -1118.7844)">
			<stop  offset="0" style="stop-color:#282657"/>
			<stop  offset="0.677" style="stop-color:#0E0C19;stop-opacity:0.3218"/>
			<stop  offset="0.9982" style="stop-color:#010101;stop-opacity:0"/>
		</linearGradient>
		<polygon style="fill:url(#SVGID_00000149353750678605469120000013583443096786909368_);" points="178.52,53.3 166.98,16.48 
			151.93,60.92 165.67,91.82 		"/>
	</g>
</g>
<linearGradient id="SVGID_00000140719228570335467500000012375629074821765779_" gradientUnits="userSpaceOnUse" x1="-44.946" y1="2366.2268" x2="-16.1244" y2="2331.0234" gradientTransform="matrix(-0.9999 0.0117 -0.0117 -0.9999 118.0482 2394.0815)">
	<stop  offset="0.0841" style="stop-color:#282657"/>
	<stop  offset="0.2675" style="stop-color:#303B5F"/>
	<stop  offset="0.6667" style="stop-color:#496682"/>
	<stop  offset="0.9469" style="stop-color:#496682;stop-opacity:0"/>
</linearGradient>
<polygon style="fill:url(#SVGID_00000140719228570335467500000012375629074821765779_);" points="125.68,55.62 113.59,17.63 
	100.18,57.54 113.37,91.78 "/>
<linearGradient id="SVGID_00000137842005299219130990000006510505837165831355_" gradientUnits="userSpaceOnUse" x1="110.187" y1="2545.2971" x2="113.559" y2="2497.7009" gradientTransform="matrix(1 0 0 1 0 -2454.5759)">
	<stop  offset="0" style="stop-color:#1C1633"/>
	<stop  offset="0.6167" style="stop-color:#0E0C19;stop-opacity:0.3218"/>
	<stop  offset="1" style="stop-color:#010101;stop-opacity:0"/>
</linearGradient>
<polygon style="fill:url(#SVGID_00000137842005299219130990000006510505837165831355_);" points="99.36,59.97 111.23,97.59 
	125.68,55.62 113.59,17.63 "/>
</svg>
